<svg width="149" height="32" viewBox="0 0 149 32" fill="none" xmlns="http://www.w3.org/2000/svg">
<path d="M9.06717 13.6735L14.8277 7.77533L20.5883 13.6735L23.9157 10.2453L14.8277 0.918945L5.71897 10.2453L9.06717 13.6735ZM3.3482 12.6514L6.6964 16.0796L3.3482 19.5291L0 16.0796L3.3482 12.6514ZM9.06717 18.5071L14.8277 24.4052L20.5883 18.5071L23.9157 21.9352L14.8069 31.2616L5.71897 21.9352L9.06717 18.5071ZM29.6347 16.1009L26.2865 19.5291L22.9383 16.1009L26.2865 12.6727L29.6347 16.1009ZM18.2175 16.0796L14.8277 12.6089L12.3114 15.1853L12.0202 15.4834L11.4172 16.1009L14.8069 19.5717L18.2175 16.0796ZM34.8545 8.26507H42.1332C43.9425 8.26507 45.3151 8.73352 46.2301 9.69171C46.9372 10.437 47.3115 11.3313 47.3115 12.4172V12.4598C47.3115 12.9283 47.2491 13.3328 47.1451 13.6735C47.0412 14.0355 46.8748 14.3336 46.7084 14.6317C46.5213 14.9085 46.3133 15.164 46.0637 15.377C45.8142 15.5899 45.5646 15.7815 45.2735 15.9306C46.1885 16.2926 46.8956 16.761 47.4155 17.3572C47.9354 17.9534 48.2058 18.8052 48.2058 19.8698V19.9124C48.2058 20.6577 48.0602 21.2964 47.7898 21.8501C47.5195 22.4037 47.1243 22.8508 46.6044 23.2341C46.0845 23.5961 45.4606 23.8729 44.7536 24.0646C44.0257 24.2562 43.2354 24.3414 42.3412 24.3414H34.8753V8.26507H34.8545ZM41.4054 14.7808C42.1748 14.7808 42.7779 14.653 43.2146 14.3762C43.6722 14.0994 43.8801 13.6735 43.8801 13.0773V13.0347C43.8801 12.5024 43.693 12.0978 43.2978 11.7997C42.9027 11.5229 42.3412 11.3739 41.6133 11.3739H38.2027V14.7808H41.4054ZM42.3412 21.2539C43.1107 21.2539 43.693 21.1048 44.1297 20.828C44.5664 20.5512 44.7744 20.104 44.7744 19.5078V19.4652C44.7744 18.9329 44.5664 18.5071 44.1713 18.1877C43.7761 17.8683 43.1107 17.7192 42.2164 17.7192H38.2235V21.2539H42.3412ZM52.5314 8.26507H55.9836V24.3627H52.5314V8.26507ZM61.2242 8.26507H64.4061L71.7679 18.1664V8.26507H75.1785V24.3627H72.2462L64.6348 14.142V24.3627H61.2242V8.26507ZM85.6598 8.1586H88.8417L95.5797 24.3627H91.9611L90.5262 20.7641H83.8714L82.4364 24.3627H78.901L85.6598 8.1586ZM89.2992 17.634L87.2196 12.4172L85.1399 17.634H89.2992ZM99.3022 8.26507H102.484L109.846 18.1664V8.26507H113.256V24.3627H110.324L102.713 14.142V24.3627H99.3022V8.26507ZM125.713 24.6395C124.57 24.6395 123.488 24.4265 122.511 24.0007C121.533 23.5748 120.66 22.9786 119.953 22.2333C119.225 21.4881 118.664 20.6151 118.268 19.593C117.873 18.5709 117.665 17.5063 117.665 16.3564V16.3139C117.665 15.164 117.873 14.0781 118.268 13.0773C118.664 12.0765 119.225 11.1822 119.953 10.437C120.681 9.67041 121.533 9.07421 122.532 8.64834C123.53 8.22248 124.632 7.98826 125.859 7.98826C126.587 7.98826 127.252 8.05214 127.876 8.17989C128.479 8.30765 129.041 8.478 129.519 8.69093C130.018 8.90386 130.476 9.15938 130.892 9.47878C131.308 9.77688 131.703 10.1176 132.056 10.5008L129.852 13.0986C129.228 12.5237 128.604 12.0765 127.98 11.7571C127.336 11.4377 126.628 11.2674 125.838 11.2674C125.173 11.2674 124.57 11.3952 124.008 11.6507C123.447 11.9062 122.968 12.2682 122.552 12.7366C122.157 13.2051 121.825 13.7374 121.617 14.3336C121.388 14.9298 121.284 15.5899 121.284 16.2713V16.3139C121.284 16.9952 121.388 17.6553 121.617 18.2728C121.845 18.8903 122.157 19.4227 122.552 19.8911C122.948 20.3596 123.426 20.7215 123.987 20.9771C124.549 21.2539 125.173 21.3816 125.838 21.3816C126.732 21.3816 127.502 21.2113 128.126 20.8706C128.75 20.5299 129.374 20.0827 129.977 19.4865L132.181 21.7649C131.786 22.2121 131.349 22.6166 130.933 22.9573C130.497 23.3193 130.018 23.6174 129.498 23.8729C128.978 24.1284 128.417 24.3201 127.814 24.4478C127.169 24.5756 126.483 24.6395 125.713 24.6395ZM136.236 8.26507H148.069V11.4164H139.647V14.6743H147.05V17.8257H139.647V21.2113H148.173V24.3627H136.236V8.26507Z" fill="white"/>
</svg>
