<svg width="135" height="25" viewBox="0 0 135 25" fill="none" xmlns="http://www.w3.org/2000/svg">
<path d="M28.0299 7.20775C23.1638 7.20775 19.356 10.9574 19.356 15.9775C19.356 20.9976 23.0664 24.7103 28.0299 24.7103C32.9934 24.7103 36.7646 20.936 36.7646 15.9405C36.7768 10.9944 33.0664 7.20775 28.0299 7.20775ZM28.0664 21.0963C25.2927 21.0963 23.2611 18.9131 23.2611 15.9775C23.2611 13.0173 25.2562 10.8341 28.0299 10.8341C30.8401 10.8341 32.8717 13.0543 32.8717 15.9775C32.8717 18.9008 30.8401 21.0963 28.0664 21.0963ZM37.8352 11.0191H40.2561V24.3773H44.1247V7.54078H37.8352V11.0191ZM9.62373 10.8341C11.6553 10.8341 13.2733 12.1045 13.8816 13.9917H17.9813C17.2392 9.946 13.9546 7.22009 9.66022 7.22009C4.79408 7.20775 0.986328 10.9574 0.986328 15.9775C0.986328 20.9976 4.69676 24.7103 9.66022 24.7103C13.8573 24.7103 17.2027 21.9721 17.9448 17.9017H13.8816C13.2977 19.7889 11.6918 21.0963 9.66022 21.0963C6.85003 21.0963 4.89141 18.9131 4.89141 15.9775C4.89141 13.0173 6.8257 10.8341 9.62373 10.8341ZM111.338 14.3494L108.504 13.93C107.153 13.7327 106.18 13.2763 106.18 12.2032C106.18 11.0314 107.433 10.4394 109.148 10.4394C111.022 10.4394 112.214 11.2534 112.47 12.5856H116.204C115.779 9.1936 113.2 7.20775 109.246 7.20775C105.146 7.20775 102.445 9.32928 102.445 12.3265C102.445 15.1881 104.221 16.8533 107.798 17.3713L110.633 17.7907C112.019 17.988 112.798 18.5431 112.798 19.5792C112.798 20.9113 111.448 21.4663 109.574 21.4663C107.287 21.4663 105.998 20.5166 105.803 19.0858H101.995C102.348 22.3791 104.891 24.6856 109.538 24.6856C113.759 24.6856 116.569 22.7245 116.569 19.3695C116.557 16.3969 114.538 14.8428 111.338 14.3494ZM42.1904 0.596505C40.767 0.596505 39.7086 1.6326 39.7086 3.07572C39.7086 4.51885 40.767 5.55494 42.1904 5.55494C43.6137 5.55494 44.6721 4.50652 44.6721 3.07572C44.6721 1.64493 43.6016 0.596505 42.1904 0.596505ZM98.9661 13.301C98.9661 9.64997 96.7763 7.20775 92.1291 7.20775C87.7496 7.20775 85.2922 9.45262 84.8056 12.9063H88.6377C88.8323 11.5741 89.8664 10.464 92.0561 10.464C94.0269 10.464 94.988 11.3398 94.988 12.4129C94.988 13.819 93.2119 14.1767 91.0221 14.3987C88.0537 14.7194 84.3798 15.7678 84.3798 19.6779C84.3798 22.7121 86.6061 24.661 90.1462 24.661C92.9199 24.661 94.6595 23.4892 95.5354 21.6267C95.6693 23.2918 96.8858 24.3649 98.6011 24.3649H100.864V20.8743H98.9661V13.301ZM95.1583 17.544C95.1583 19.7889 93.224 21.454 90.8761 21.454C89.4284 21.454 88.1997 20.8373 88.1997 19.5298C88.1997 17.8647 90.1705 17.4083 91.971 17.211C93.7106 17.0506 94.6839 16.6559 95.1583 15.9035V17.544ZM74.6232 7.20775C72.4578 7.20775 70.6573 8.1205 69.3678 9.64997V0.436157H65.4992V24.3773H69.3069V22.1571C70.5965 23.7482 72.4334 24.698 74.6232 24.698C79.2704 24.698 82.774 20.9853 82.774 15.9652C82.774 10.9451 79.1974 7.20775 74.6232 7.20775ZM74.0393 21.0963C71.2656 21.0963 69.2339 18.9131 69.2339 15.9775C69.2339 13.0419 71.3021 10.8341 74.0758 10.8341C76.886 10.8341 78.8446 13.0173 78.8446 15.9775C78.8446 18.9131 76.813 21.0963 74.0393 21.0963ZM56.2414 7.20775C53.7231 7.20775 52.0808 8.25618 51.1197 9.71164V7.54078H47.2877V24.3896H51.1562V15.2375C51.1562 12.6596 52.7621 10.8341 55.1586 10.8341C57.3849 10.8341 58.7717 12.4252 58.7717 14.7441V24.3896H62.6403V14.4481C62.6282 10.205 60.4627 7.20775 56.2414 7.20775ZM135 15.4225C135 10.5997 131.521 7.20775 126.837 7.20775C121.873 7.20775 118.224 10.9821 118.224 15.9775C118.224 21.2197 122.129 24.7103 126.898 24.7103C130.924 24.7103 134.087 22.2928 134.89 18.8761H130.864C130.28 20.3686 128.868 21.2197 126.959 21.2197C124.477 21.2197 122.603 19.6532 122.19 16.9149H134.988L135 15.4225ZM122.433 14.115C123.041 11.7715 124.781 10.6244 126.788 10.6244C128.978 10.6244 130.657 11.8948 131.046 14.115H122.433Z" fill="white"/>
</svg>
