<svg width="108" height="34" viewBox="0 0 108 34" fill="none" xmlns="http://www.w3.org/2000/svg">
<path d="M53.9365 13.0454V17.6246H63.0862V22.1528H53.9365V29.276H48.0545V8.4917H64.343V13.0454H53.9365ZM72.8392 13.1472H66.4797V8.4917H85.0808V13.1472H78.7463V29.276H72.8392V13.1472ZM100.665 29.276L96.3671 22.8397L92.119 29.276H85.4076L92.9737 18.7694L85.7343 8.4917H92.3453L96.4928 14.4955L100.59 8.4917H106.95L99.7103 18.5404L107.427 29.3014H100.665V29.276ZM11.6063 33.7788H20.4544V24.9003H11.6063V33.7788ZM28.3222 12.6638H11.6063V21.5423H28.3222H31.3638V12.6638H28.3222ZM11.6063 0.401855V9.28033H39.0556V0.401855H11.6063ZM0.722168 21.5168H9.57027V12.6384H0.722168V21.5168Z" fill="white"/>
</svg>
