<svg width="153" height="26" viewBox="0 0 153 26" fill="none" xmlns="http://www.w3.org/2000/svg">
<path d="M59.2213 8.7695C59.424 8.76962 59.6246 8.81023 59.8114 8.88894C59.9988 8.96789 60.1684 9.08358 60.3103 9.22918C60.6011 9.52419 60.764 9.92187 60.7638 10.3361V19.4054H56.941V17.4499C56.013 18.8252 53.8388 19.6328 52.1219 19.5992C50.9096 19.6134 49.708 19.3725 48.595 18.892C47.482 18.4114 46.4825 17.7021 45.6616 16.8101C43.9582 14.9959 43.0101 12.601 43.0101 10.1125C43.0101 7.62403 43.9582 5.22906 45.6616 3.4149C46.4811 2.52338 47.4791 1.81422 48.5906 1.33349C49.702 0.852766 50.9022 0.611221 52.1132 0.624546C53.9005 0.604884 55.6461 1.16453 57.0888 2.21974C57.4365 2.47358 57.7661 2.7513 58.0753 3.05089C58.5514 3.51362 58.9778 4.02495 59.3475 4.57651C59.8887 5.39801 60.276 6.3111 60.4904 7.27121H56.5472L56.3558 6.9308C55.9866 6.27127 55.4752 5.70217 54.8588 5.26479C54.0583 4.70554 53.102 4.41256 52.1256 4.42743C51.4157 4.41029 50.7105 4.54675 50.0583 4.82747C49.4042 5.11116 48.8181 5.53086 48.3389 6.05865C47.3571 7.1888 46.8154 8.63489 46.8131 10.1319C46.8109 11.629 47.3481 13.0767 48.3264 14.2098C48.8054 14.7382 49.3921 15.1576 50.0471 15.4398C50.6992 15.721 51.4044 15.8579 52.1144 15.8411C53.2878 15.8447 54.4212 15.4151 55.2973 14.6347C56.0701 13.939 56.582 13.3923 56.8019 12.2742L51.4522 12.2978L51.4125 8.7695H59.2213Z" fill="#0074F0"/>
<path d="M17.781 7.69295C17.9255 8.28215 18.0164 8.8832 18.0528 9.48877C18.1779 11.4118 17.7365 13.3293 16.7832 15.0041C15.3237 17.5185 12.6318 19.2994 9.73886 19.5662C9.00293 19.6323 8.26151 19.6019 7.53348 19.4756C6.37588 19.2768 5.26934 18.8499 4.27816 18.2197C3.78647 17.9063 3.32892 17.5424 2.91299 17.1337C2.77027 16.9935 2.62754 16.852 2.48854 16.7081C2.30326 16.5187 2.12882 16.3189 1.96606 16.1099C1.88663 16.0044 1.80968 15.8976 1.73522 15.7884C1.65826 15.6872 1.58739 15.5816 1.52299 15.472L11.7395 5.12145L11.6079 5.03954C11.5632 5.01224 11.5186 4.98742 11.4726 4.9626C10.0404 4.19438 8.20614 4.21051 6.76899 4.95515C6.06418 5.33153 5.44928 5.85613 4.96659 6.49286C4.4839 7.12959 4.14488 7.86333 3.97286 8.6436C3.77972 9.50833 3.75026 10.4016 3.88599 11.2772C3.88883 11.2914 3.89141 11.3056 3.89398 11.3197C3.897 11.3363 3.9 11.3529 3.90336 11.369L0.966994 14.3624C0.94839 14.324 0.929751 14.2855 0.912387 14.247C0.354577 13.0384 0.0458909 11.7298 0.00473874 10.3993C-0.0364135 9.06874 0.190812 7.74357 0.672862 6.50276C0.754772 6.29675 0.845371 6.09321 0.940933 5.89216C1.93999 3.82578 3.7383 2.02499 5.89652 1.20837C7.71653 0.510339 9.71663 0.435505 11.5837 0.995585C13.4508 1.55566 15.0795 2.71904 16.2148 4.30359V4.31104C16.2351 4.33923 16.2554 4.36714 16.2757 4.39501C16.3385 4.48124 16.4011 4.56723 16.463 4.66102L16.5424 4.78513L6.37929 15.1431C7.54838 15.8765 9.09723 16.0441 10.4128 15.6643C10.594 15.6119 10.7722 15.5493 10.9464 15.4769L11.0494 15.4335C12.8055 14.6653 13.9833 12.9625 14.2539 11.0823C14.3175 10.6422 14.3316 10.1964 14.2961 9.75312C14.2861 9.63149 14.203 8.91912 14.203 8.91912L17.1629 5.90209C17.2481 6.08411 17.3288 6.2682 17.4049 6.45436C17.4008 6.4585 17.5089 6.77531 17.5615 6.92923C17.5719 6.95974 17.5802 6.98398 17.5849 6.99795C17.6585 7.22713 17.7239 7.4588 17.781 7.69295Z" fill="#0074F0"/>
<path fill-rule="evenodd" clip-rule="evenodd" d="M34.6691 7.05321C34.685 8.21012 34.3604 9.34618 33.7356 10.32C33.1086 11.2983 32.2098 12.0723 31.1493 12.5473L35.4169 19.4386H31.0633L27.2145 13.1418H24.2319V19.4386H20.312V1.65261C20.3118 1.53918 20.334 1.42683 20.3772 1.32197C20.4205 1.21712 20.484 1.12181 20.5641 1.04149C20.6442 0.961163 20.7393 0.897403 20.844 0.853844C20.9488 0.810286 21.061 0.787782 21.1745 0.787619H28.3586C29.1873 0.766811 30.0116 0.914368 30.7816 1.22136C31.944 1.68528 32.9381 2.4913 33.6323 3.5327C34.3265 4.57411 34.6881 5.80178 34.6691 7.05321ZM30.1048 8.83554C30.3555 8.59623 30.5534 8.3071 30.6857 7.98675C30.8155 7.66698 30.8763 7.32334 30.8639 6.97843C30.8745 6.64485 30.819 6.31247 30.7008 6.00039C30.5825 5.68832 30.4037 5.40269 30.1746 5.15995C29.9423 4.92 29.6612 4.73265 29.3503 4.61053C29.0394 4.48841 28.7059 4.43435 28.3724 4.452H24.2393V9.55595H28.1979C28.5491 9.5693 28.8995 9.51253 29.2286 9.38894C29.5577 9.2642 29.8592 9.07619 30.1161 8.83554H30.1048Z" fill="#0074F0"/>
<path d="M36.9091 0.785688H40.7718V19.4386H36.9091V0.785688Z" fill="#0074F0"/>
<path d="M63.2509 0.785688H67.1135V19.4386H63.2509V0.785688Z" fill="#0074F0"/>
<path d="M82.0453 0.789428H82.2846L82.2945 0.790673H85.9282V17.3202C85.9308 17.8758 85.7198 18.4111 85.3388 18.8155C85.1559 19.0104 84.9354 19.1662 84.6906 19.2733C84.4457 19.3804 84.1817 19.4366 83.9145 19.4386H81.9755C81.5935 19.4369 81.2204 19.3229 80.9026 19.1108C80.5766 18.8959 80.3175 18.5937 80.155 18.2386L73.4734 5.90218V19.4361H69.6005V2.90406C69.5979 2.34847 69.8089 1.81312 70.1899 1.40874C70.5466 1.02821 71.0394 0.804237 71.5606 0.78569H73.6404C74.0216 0.785149 74.3945 0.897444 74.712 1.10843C75.0363 1.32331 75.293 1.62578 75.4522 1.9807L82.0453 14.0679V0.789428Z" fill="#0074F0"/>
<path d="M99.175 0.624023C94.8867 0.624023 92.7918 3.10856 92.7918 6.01129C92.7918 9.529 95.5028 10.4638 98.8053 11.2756C101.615 11.9397 103.217 12.4317 103.217 14.2767C103.217 16.1954 101.664 16.9826 99.5447 16.9826C97.228 16.9826 95.4781 15.728 95.3549 13.7601L92.3728 13.9323C92.496 17.5238 95.5028 19.5163 99.5447 19.5163C103.192 19.5163 106.199 17.8682 106.199 14.0799C106.199 10.8328 103.759 9.72579 99.8897 8.79102C97.228 8.17603 95.7985 7.75784 95.7985 5.91289C95.7985 4.33853 96.9815 3.15776 99.2243 3.15776C101.295 3.15776 102.65 4.28933 102.749 6.13428L105.731 5.96209C105.607 2.59197 102.946 0.624023 99.175 0.624023Z" fill="black"/>
<path d="M114.192 16.9826C113.058 16.9826 112.097 16.466 112.097 14.8179L112.122 9.03701H115.35V6.65087H112.146L112.171 2.37058H109.386L109.362 6.65087H107.02V9.03701H109.362L109.337 15.3836C109.312 18.2372 111.037 19.4671 113.527 19.4671C114.414 19.4671 114.907 19.3933 115.375 19.3196V16.8596C115.079 16.9088 114.71 16.9826 114.192 16.9826Z" fill="black"/>
<path d="M123.214 6.42948C119.443 6.42948 116.609 8.96321 116.609 12.9729C116.609 16.958 119.443 19.5163 123.214 19.5163C126.96 19.5163 129.794 16.958 129.794 12.9729C129.794 8.96321 126.96 6.42948 123.214 6.42948ZM123.214 8.79102C125.383 8.79102 127.009 10.3408 127.009 12.9729C127.009 15.5804 125.383 17.1302 123.214 17.1302C121.021 17.1302 119.419 15.5804 119.419 12.9729C119.419 10.3408 121.021 8.79102 123.214 8.79102Z" fill="black"/>
<path d="M138.002 6.50327C135.981 6.50327 135.087 7.43805 134.619 8.42203V6.65087H131.932V19.2704H134.693V12.4071C134.693 10.5622 136.693 9.18461 138.861 9.18461L138.002 6.50327Z" fill="black"/>
<path d="M152.308 6.65087H149.227L145.826 15.2853L142.425 6.65087H139.344L144.347 18.3848L141.242 25.5432H144.273L152.308 6.65087Z" fill="black"/>
</svg>
