<svg width="418" height="418" viewBox="0 0 418 418" fill="none" xmlns="http://www.w3.org/2000/svg">
<path d="M418 209C418 324.428 324.428 418 209 418C93.5725 418 0 324.428 0 209C0 93.5725 93.5725 0 209 0C324.428 0 418 93.5725 418 209Z" fill="#3094FF"/>
<path d="M369.003 208.798C369.003 208.518 369.003 208.238 369.003 207.958V207.712C369.003 206.323 369.003 204.945 369.003 203.568C369.003 201.665 368.898 199.774 368.794 197.871C368.794 197.077 368.701 196.271 368.642 195.477C368.654 195.252 368.654 195.026 368.642 194.8C368.642 194.123 368.549 193.457 368.491 192.78C368.491 192.512 368.491 192.255 368.421 191.986C368.351 191.122 368.27 190.27 368.176 189.406V189.325L367.862 186.523C367.641 184.678 367.396 182.833 367.093 181C367.099 180.888 367.099 180.775 367.093 180.662C366.387 176.062 365.474 171.501 364.356 166.979L363.867 165.006C363.634 164.13 363.401 163.243 363.157 162.367C362.866 161.27 362.551 160.184 362.225 159.11V158.841C362.109 158.409 361.981 157.989 361.853 157.569C361.724 157.149 361.666 156.915 361.561 156.588C361.457 156.261 361.375 155.935 361.27 155.608L359.849 151.323L357.415 143.781L357.089 144.12C355.761 140.819 354.333 137.562 352.803 134.348L300.325 187.783C300.729 190.025 301.055 192.278 301.303 194.543C301.232 195.926 301.373 197.313 301.723 198.653C302.014 202.389 302.2 205.891 302.2 209.277C302.2 211.308 302.2 213.083 302.119 214.811C302.119 215.196 302.119 215.593 302.119 215.978C302.06 216.726 301.99 217.484 301.897 218.255L302.025 218.383C302.025 218.85 302.025 219.317 302.025 219.796C301.78 221.213 301.621 222.644 301.548 224.081V225.832C301.431 227.093 301.233 228.344 300.954 229.579C300.161 234.147 299.091 238.662 297.751 243.099L296.272 247.384C296.074 247.944 295.864 248.551 295.643 249.088C295.538 249.357 295.445 249.625 295.34 249.882L295.026 250.676L294.956 250.863C294.677 251.551 294.385 252.24 294.083 252.941C292.592 256.198 291.229 259.035 289.809 261.568L289.226 262.654C289.028 263.016 288.819 263.366 288.609 263.728L288.12 264.534L287.619 265.328L287.258 265.888C286.278 267.531 285.213 269.121 284.067 270.651L282.902 272.263C281.738 273.862 280.456 275.427 279.187 276.933C278.465 277.832 277.708 278.719 276.858 279.583L276.613 279.863L276.45 280.038C275.588 280.995 274.715 281.953 273.83 282.887C273.224 283.529 272.595 284.159 271.978 284.79C271.372 285.409 270.743 286.027 270.115 286.611C269.777 286.95 269.427 287.277 269.078 287.603C268.729 287.93 268.379 288.269 268.03 288.573L267.948 288.654L266.411 290.044C266.097 290.335 265.782 290.616 265.456 290.872C265.13 291.129 264.746 291.491 264.373 291.795L262.894 293.032L261.228 294.293L259.714 295.379L259.016 295.858L258.899 295.939L258.666 296.103C257.828 296.663 256.989 297.212 256.139 297.749C255.289 298.286 254.427 298.8 253.554 299.302L251.725 300.329L251.073 300.679L250.432 301.018L249.745 301.368L247.742 302.361L245.704 303.295L245.238 303.493L243.573 304.205L242.757 304.532L241.267 305.104L240.102 305.536L239.508 305.746L238.483 306.096L238.262 306.167L236.748 306.657L235.222 307.112L233.685 307.544C232.043 307.976 230.377 308.361 228.712 308.712L228.106 308.828C226.627 309.109 225.148 309.354 223.657 309.564L218.917 310.113C215.633 310.503 212.325 310.663 209.018 310.591C203.72 310.605 198.429 310.215 193.191 309.424C190.221 308.875 186.785 308.256 184.305 307.544L183.385 307.299L183.093 307.217L181.836 306.855L180.555 306.458L179.576 306.143L178.062 305.618L177.27 305.338L176.455 305.046H175.849C173.444 304.122 171.089 303.073 168.792 301.905L166.789 300.901L166.719 300.971L165.554 300.364L165.333 300.247L164.168 299.558C163.318 299.08 162.468 298.566 161.629 298.041L341.518 114.839L341.797 114.559L340.388 112.434C338.956 110.332 337.477 108.278 335.951 106.246L335.858 106.118C335.52 105.581 335.148 105.067 334.763 104.542C334.472 104.121 334.169 103.701 333.855 103.293L333.529 102.837L333.133 102.323L332.853 101.95L332.341 101.308L331.921 100.771L331.584 100.35L331.479 100.21L331.106 99.7667C330.757 99.3348 330.396 98.9144 330.023 98.4824C329.98 98.4212 329.933 98.3629 329.883 98.3074C329.348 97.6769 328.812 97.0347 328.264 96.4042C327.17 95.1434 326.048 93.8825 324.899 92.6216C324.316 91.9795 323.734 91.3492 323.129 90.707C320.275 87.765 317.492 85.033 314.697 82.4411C313.532 81.4138 312.461 80.3982 311.331 79.4059L309.619 77.9114L305.589 74.6541L303.866 73.2766L303.132 72.7045C302.654 72.3192 302.165 71.9456 301.676 71.537C301.187 71.1284 300.779 70.8481 300.325 70.5212C299.871 70.1943 299.16 69.634 298.532 69.202L298.124 68.9219C297.483 68.4782 296.855 68.0227 296.202 67.5791L295.271 66.9369L294.77 66.61C294.281 66.2714 293.78 65.933 293.267 65.6061L292.825 65.3142L292.58 65.1623C292.114 64.8471 291.637 64.5438 291.159 64.2519L290.274 63.6913L290.146 63.6214L288.271 62.4539L287.735 62.1387L287.095 61.7533L286.606 61.4732L284.661 60.3057L284.218 60.0605C283.531 59.6753 282.844 59.29 282.145 58.8931L281.132 58.3561L280.701 58.134L280.119 57.8307L279.734 57.6321L278.826 57.1769L278.279 56.8967C278.071 56.78 277.857 56.6747 277.638 56.5815C277.172 56.3363 276.695 56.1143 276.217 55.8809L275.844 55.5072H275.402L274.237 54.9702C273.993 54.8418 273.76 54.7366 273.504 54.6316L272.875 54.3514L271.71 53.8494L271.535 53.7676H271.419L270.091 53.2073L269.486 52.9505C269.008 52.7403 268.531 52.5418 268.042 52.355C267.937 52.355 267.82 52.2618 267.715 52.2151L267.308 52.0515L265.107 51.1992C263.026 50.4209 260.918 49.6777 258.783 48.9694C257.187 48.4441 255.58 47.9537 253.973 47.4867L251.55 46.8095L249.128 46.179L246.682 45.5952H246.519L244.574 45.1634L244.225 45.0816L241.756 44.5797C241.642 44.5451 241.525 44.5216 241.406 44.5096L239.275 44.1128L238.635 43.7625H237.61C233.042 42.9084 228.431 42.3043 223.797 41.9528C223.261 41.8828 222.714 41.8128 222.167 41.7661H222.097C221.538 41.7661 220.932 41.6609 220.396 41.6259L219.302 41.5558H219.139C216.192 41.3807 213.083 41.3691 209.682 41.3691H208.354C203.641 41.2603 198.926 41.4631 194.239 41.9762C189.605 42.3277 184.994 42.9318 180.426 43.7859H179.413L178.761 44.1476C169.944 45.6902 161.294 48.075 152.93 51.2693C149.412 52.6003 145.957 54.0674 142.564 55.6708H142.133L141.749 56.0561C134.053 59.7444 126.688 64.0918 119.738 69.0501L119.33 69.3303C116.919 71.0699 114.567 72.8329 112.261 74.7476L108.231 78.0047C103.666 81.9274 99.2867 86.0953 94.7213 90.847C92.3455 93.3843 90.0938 95.9178 87.9664 98.4473C85.8099 100.941 83.8031 103.561 81.9569 106.293C81.9147 106.334 81.8794 106.381 81.8521 106.433C81.3047 107.157 80.769 107.892 80.2449 108.628C80.1052 108.791 79.9888 108.967 79.8607 109.142C79.7325 109.317 79.6394 109.445 79.5462 109.597C79.4232 109.749 79.3103 109.909 79.2084 110.076L79.057 110.286L78.9289 110.461L78.6727 110.834C78.1836 111.535 77.6944 112.236 77.2169 112.948C77.1821 112.988 77.1508 113.03 77.1237 113.076C76.6112 113.823 76.1105 114.582 75.6214 115.341C75.3069 115.808 74.9924 116.275 74.7013 116.754C74.5149 117.034 74.3403 117.302 74.1773 117.583C74.0142 117.863 73.6415 118.412 73.3852 118.832L72.7331 119.882L72.2323 120.711C71.813 121.412 71.3938 122.112 70.9978 122.813C70.9047 122.976 70.8114 123.128 70.7299 123.291C70.6483 123.455 70.5087 123.665 70.4155 123.852C69.6003 125.241 68.8316 126.642 68.0863 128.055C68.039 128.134 67.9961 128.216 67.958 128.3C67.7135 128.744 67.4689 129.199 67.236 129.654C67.003 130.11 66.9448 130.203 66.8167 130.483C66.6886 130.764 66.5489 130.974 66.4324 131.219C66.0598 131.931 65.7103 132.655 65.3609 133.379C65.128 133.834 64.9068 134.301 64.6972 134.756C64.2779 135.62 63.8703 136.496 63.5325 137.371C63.3695 137.71 63.2064 138.06 63.055 138.41C62.7522 139.064 62.461 139.718 62.1932 140.384C61.9952 140.827 61.8088 141.271 61.6109 141.726C61.2615 142.567 60.9121 143.407 60.5743 144.259L60.2598 143.933L57.8258 151.475L56.405 155.759C56.207 156.413 56.009 157.067 55.8227 157.721L55.6829 158.199C55.5665 158.55 55.4616 158.912 55.3568 159.273C55.3603 159.324 55.3603 159.375 55.3568 159.425C55.252 159.729 55.1705 160.021 55.089 160.324L54.9842 160.674C54.693 161.678 54.4134 162.671 54.1455 163.675L54.0408 164.107C53.9476 164.445 53.8661 164.784 53.7846 165.123C53.703 165.461 53.5516 166.01 53.4351 166.465C53.4351 166.57 53.377 166.675 53.3537 166.769C53.179 167.504 52.9925 168.252 52.8295 168.999C52.6897 169.582 52.55 170.166 52.4336 170.75C52.4336 170.82 52.4336 170.902 52.4336 170.972C52.352 171.31 52.2822 171.66 52.2007 172.011L52.1307 172.373L52.0609 172.723C52.0358 172.815 52.0163 172.909 52.0027 173.003C52.0027 173.213 51.9095 173.412 51.8746 173.622C51.7697 174.112 51.6649 174.603 51.5717 175.105C51.5362 175.25 51.5128 175.399 51.5018 175.548C51.4963 175.626 51.4963 175.704 51.5018 175.782C51.3038 176.809 51.1292 177.825 50.9545 178.841C50.9545 179.027 50.8846 179.214 50.8613 179.401C50.6983 180.37 50.5469 181.339 50.4071 182.296C50.4071 182.553 50.3256 182.798 50.2907 183.055C50.2851 183.109 50.2851 183.164 50.2907 183.219C50.2907 183.405 50.2906 183.604 50.2091 183.791C50.1276 183.977 50.1276 184.374 50.0926 184.666V184.935C50.0991 184.989 50.0991 185.044 50.0926 185.098C50.0926 185.588 49.9645 186.09 49.9179 186.581C49.8713 187.071 49.8364 187.235 49.8015 187.562L49.7317 188.099C49.7317 188.507 49.6385 188.904 49.6036 189.266C49.5687 189.628 49.5103 190.095 49.4754 190.515C49.4754 190.691 49.4754 190.877 49.4754 191.052C49.4754 191.228 49.4754 191.531 49.4754 191.765C49.4754 191.998 49.4754 192.5 49.3822 192.874C49.3766 192.901 49.3766 192.929 49.3822 192.956C49.3822 193.387 49.3124 193.831 49.2891 194.263C49.227 194.932 49.1804 195.598 49.1494 196.259C49.1494 196.633 49.1493 197.007 49.0794 197.427C49.0095 197.847 49.0794 197.835 49.0794 198.046C49.0737 198.092 49.0737 198.139 49.0794 198.186C49.0794 198.711 49.0795 199.225 49.0096 199.738C49.0043 199.789 49.0043 199.84 49.0096 199.89C49.0096 200.007 49.0096 200.136 49.0096 200.252C49.0038 200.353 49.0038 200.455 49.0096 200.556C49.0038 200.637 49.0038 200.719 49.0096 200.801C49.0096 201.326 49.0096 201.84 49.0096 202.365C49.0096 202.529 49.0096 202.681 49.0096 202.844C49.0096 203.008 49.0096 203.323 49.0096 203.556V203.685C49.0096 203.86 49.0096 204.035 49.0096 204.21C49.0096 205.086 49.0096 205.949 49.0096 206.813C49.0096 207.677 49.0096 208.191 49.0096 208.88V209.674C48.963 213.293 49.0367 216.9 49.2308 220.496C49.2891 221.535 49.359 222.575 49.4289 223.602C49.4289 224.338 49.5337 225.085 49.6036 225.82C49.7899 228.038 50.0228 230.253 50.3023 232.463C50.4305 233.444 50.5585 234.413 50.6983 235.393C50.6983 235.72 50.7798 236.059 50.838 236.386C51.1175 238.277 51.4321 240.157 51.7814 242.036C53.2694 250.102 55.348 258.047 58.0005 265.807C58.3849 266.974 58.7925 268.141 59.1652 269.239L60.9354 274.68L61.1683 274.434C62.5193 277.773 63.975 281.062 65.5356 284.3L117.606 231.284C117.501 230.747 117.397 230.198 117.303 229.65C117.024 228.415 116.826 227.163 116.71 225.902V224.151C116.637 222.714 116.477 221.283 116.232 219.866C116.232 219.387 116.232 218.92 116.232 218.453L116.372 218.313C116.063 215.327 115.942 212.325 116.011 209.323C116.011 205.938 116.197 202.435 116.488 198.699C116.689 198.039 116.81 197.357 116.849 196.668C116.849 195.979 116.849 195.29 116.849 194.602C117.254 190.807 117.888 187.041 118.748 183.324C119.2 181.061 119.772 178.824 120.46 176.622L120.693 175.828C120.972 174.941 121.263 174.042 121.578 173.108C121.834 172.384 122.102 171.649 122.404 170.867C122.509 170.563 122.626 170.259 122.754 169.944L122.94 169.477C123.292 168.41 123.708 167.365 124.186 166.348C124.493 165.39 124.882 164.46 125.351 163.57C125.587 162.92 125.883 162.295 126.236 161.702C127.003 160.029 127.854 158.396 128.787 156.81C129.556 155.263 130.428 153.769 131.396 152.339C137.97 142.059 146.176 132.926 155.69 125.3L157.355 124.039C158.846 122.941 160.364 121.894 161.909 120.898C162.107 120.77 162.305 120.641 162.514 120.525C162.724 120.408 162.841 120.326 163.004 120.209H163.073C163.22 120.108 163.371 120.014 163.528 119.929L163.807 119.754C163.947 119.661 164.098 119.579 164.25 119.497L164.553 119.322C165.333 118.855 166.113 118.411 166.882 117.991L167.022 117.91C167.163 117.817 167.311 117.735 167.464 117.664L168.291 117.221C168.57 117.069 168.838 116.929 169.118 116.8L169.77 116.474L170.143 116.298L170.585 116.076L172.134 115.353C172.236 115.288 172.345 115.237 172.46 115.201C172.611 115.121 172.767 115.051 172.926 114.991C173.093 114.907 173.264 114.833 173.439 114.769C173.87 114.57 174.312 114.384 174.743 114.208L174.941 114.127L176.106 113.683L177.433 113.169L177.864 113.006L178.307 112.843H178.435C179.402 112.492 180.38 112.154 181.37 111.85H181.533L183.559 111.255C185.423 110.753 187.298 110.286 189.184 109.889L191.083 109.515C191.921 109.363 192.771 109.212 193.622 109.083C196.032 108.698 198.466 108.418 200.901 108.208L202.065 108.114C203.009 108.032 203.94 107.986 204.872 107.939H205.815C206.98 107.939 208.145 107.857 209.402 107.857H209.577C214.885 107.868 220.184 108.29 225.428 109.118C226.127 109.223 226.825 109.352 227.524 109.48C227.835 109.527 228.149 109.585 228.467 109.655C230.797 110.111 233.126 110.648 235.455 111.29L237.586 111.92C237.628 111.91 237.672 111.91 237.715 111.92L237.959 112.002L238.972 112.329H239.054C239.489 112.469 239.92 112.621 240.347 112.784H240.498C240.824 112.889 241.15 113.018 241.488 113.146L242.816 113.66H242.967L244.493 114.29L245.89 114.921L247.358 115.598C248.324 116.053 249.291 116.52 250.234 117.022L251.399 117.687L251.469 117.618L251.795 117.793C252.599 118.225 253.402 118.668 254.194 119.147C254.986 119.626 255.766 120.104 256.523 120.595L97.6329 282.42L75.6679 303.738L75.5398 303.878L76.0639 304.672C76.4716 305.279 76.8791 305.84 77.2984 306.482V306.54L77.5314 306.937L79.6043 310.136C81.8959 313.543 84.3686 316.825 87.0115 319.966C89.201 322.57 91.4487 325.045 93.7663 327.52C98.2152 332.108 102.594 336.264 107.334 340.362L111.306 343.561C112.249 344.332 113.204 345.079 114.171 345.826C114.928 346.41 115.696 346.994 116.5 347.566L118.829 349.27C119.05 349.41 119.272 349.573 119.493 349.725C120.401 350.371 121.321 351.002 122.253 351.617L123.325 352.329L125.887 353.987L126.248 354.208C127.273 354.851 128.309 355.481 129.346 356.1C130.382 356.719 131.605 357.407 132.746 358.05C133.573 358.517 134.4 358.972 135.239 359.415C137.956 360.863 140.712 362.225 143.508 363.502C146.314 364.774 149.156 365.977 152.033 367.074L154.548 367.997C155.399 368.3 156.237 368.604 157.099 368.884L158.811 369.444L159.195 369.573L160.698 370.028L161.338 370.226L163.027 370.694L163.26 370.763L163.504 370.833L165.671 371.406C167.86 372.013 170.003 372.573 172.192 373.04C173.648 373.355 175.116 373.659 176.583 373.939L178.4 374.278H178.551L179.332 374.418L179.704 374.488H180.065L182.301 374.85C182.604 374.85 182.895 374.955 183.198 374.99L185.411 375.317L186.809 375.492C187.088 375.492 187.356 375.574 187.635 375.597C188.497 375.714 189.348 375.819 190.209 375.912L192.865 376.181H193.482C195.054 376.321 196.638 376.438 198.222 376.519H198.781L200.598 376.601C201.308 376.601 202.019 376.659 202.729 376.659H212.547C213.479 376.659 214.41 376.659 215.342 376.577H216.658C217.485 376.577 218.312 376.508 219.127 376.449H219.884L220.629 376.391H221.561L223.029 376.262H223.494L225.696 376.052C226.627 375.959 227.547 375.854 228.479 375.737L230.331 375.492L231.204 375.363H231.356L231.961 375.27L234.197 374.931H234.419L235.49 374.745L235.851 374.686L236.364 374.593L238.355 374.254L240.347 373.881C241.663 373.624 242.967 373.367 244.271 373.075C246.461 372.585 248.604 372.048 250.793 371.441C255.435 370.262 260.005 368.812 264.478 367.098C266.632 366.269 268.775 365.393 270.883 364.459C275.822 362.309 280.636 359.881 285.301 357.186L288.283 355.423C290.263 354.224 292.204 352.983 294.106 351.699C295.061 351.06 296.016 350.406 296.971 349.737L297.646 349.27C300.201 347.449 302.701 345.546 305.147 343.561L309.118 340.362C313.858 336.253 318.237 332.096 322.686 327.52C325.015 325.045 327.251 322.57 329.441 319.966C332.084 316.825 334.556 313.543 336.848 310.136L338.921 306.937L339.142 306.563L339.445 306.132L340.435 304.66L340.54 304.497L341.635 302.863L341.704 302.746C342.124 302.104 342.543 301.462 342.95 300.808L344.115 298.858C346.033 295.745 347.846 292.561 349.554 289.308C350.16 288.14 350.719 286.973 351.336 285.805C351.627 285.21 351.918 284.638 352.198 284.031C352.477 283.424 352.745 282.863 353.001 282.338C353.257 281.813 353.456 281.369 353.665 280.879C353.875 280.388 354.096 279.921 354.317 279.431V279.338C354.317 279.268 354.317 279.197 354.399 279.139C354.748 278.345 355.098 277.551 355.435 276.804L355.75 276.057C355.96 275.543 356.192 275.041 356.402 274.528L356.472 274.353L356.693 274.586L358.463 269.146C358.964 267.78 359.442 266.414 359.908 265.036C359.913 264.97 359.913 264.903 359.908 264.837C360.152 264.137 360.385 263.425 360.606 262.724C360.711 262.409 360.816 262.094 360.909 261.779C360.914 261.721 360.914 261.662 360.909 261.603L361.084 261.043C361.27 260.459 361.456 259.876 361.62 259.28C361.678 259.128 361.713 258.988 361.759 258.837C361.805 258.703 361.844 258.566 361.876 258.428C362.004 257.996 362.132 257.552 362.248 257.109C362.365 256.665 362.505 256.245 362.621 255.801L362.936 254.634C362.941 254.556 362.941 254.478 362.936 254.4C363.161 253.622 363.37 252.804 363.565 251.948C363.716 251.4 363.844 250.851 363.96 250.302C363.96 250.197 363.961 250.092 364.042 249.975C364.135 249.613 364.217 249.252 364.298 248.89L364.368 248.574L364.438 248.247C364.445 248.174 364.445 248.1 364.438 248.026C364.519 247.675 364.589 247.325 364.671 246.975C364.787 246.426 364.904 245.889 365.009 245.352C365.067 245.084 365.125 244.803 365.172 244.535C365.273 244.06 365.366 243.582 365.451 243.099L365.591 242.352C365.684 241.885 365.777 241.406 365.859 240.939C366.01 240.087 366.162 239.223 366.301 238.371C366.301 238.02 366.406 237.67 366.464 237.32C366.463 237.301 366.463 237.281 366.464 237.262C366.651 236.094 366.825 234.926 366.977 233.677C366.977 233.561 366.977 233.455 366.977 233.339C367.128 232.171 367.268 231.004 367.396 229.836C367.524 228.669 367.641 227.501 367.745 226.334C367.85 225.166 367.955 223.882 368.025 222.656C368.025 221.886 368.13 221.104 368.165 220.321C368.165 220.17 368.165 220.006 368.165 219.854C368.17 219.815 368.17 219.776 368.165 219.738C368.27 217.531 368.339 215.325 368.351 213.106C368.351 212.628 368.351 212.126 368.351 211.635V211.402C368.351 210.654 368.351 209.919 368.351 209.172L369.003 208.798Z" fill="white"/>
</svg>
