<svg width="153" height="19" viewBox="0 0 153 19" fill="none" xmlns="http://www.w3.org/2000/svg">
<path d="M57.9943 7.97672C58.1928 7.97683 58.3893 8.0166 58.5722 8.09369C58.7557 8.171 58.9218 8.28429 59.0608 8.42687C59.3456 8.71576 59.5051 9.10521 59.5048 9.51088V18.3923H55.7613V16.4773C54.8525 17.8241 52.7234 18.6149 51.042 18.5821C49.8549 18.596 48.6781 18.36 47.5882 17.8895C46.4982 17.4189 45.5195 16.7243 44.7155 15.8507C43.0475 14.0742 42.119 11.7288 42.119 9.29189C42.119 6.85498 43.0475 4.50963 44.7155 2.73306C45.5181 1.86 46.4954 1.16554 47.5838 0.69477C48.6723 0.224004 49.8476 -0.0125371 51.0335 0.000511945C52.7838 -0.0187432 54.4932 0.52931 55.9061 1.56266C56.2465 1.81124 56.5693 2.08321 56.8721 2.37658C57.3384 2.82973 57.7559 3.33047 58.1179 3.8706C58.6479 4.67508 59.0272 5.56925 59.2372 6.50946H55.3756L55.1882 6.17611C54.8267 5.53024 54.3259 4.97294 53.7222 4.54461C52.9383 3.99695 52.0018 3.71005 51.0456 3.7246C50.3505 3.70782 49.6599 3.84146 49.0212 4.11636C48.3807 4.39417 47.8067 4.80518 47.3374 5.32204C46.3759 6.42877 45.8455 7.84489 45.8433 9.31091C45.841 10.7769 46.3671 12.1947 47.3252 13.3043C47.7942 13.8218 48.3688 14.2325 49.0102 14.5088C49.6488 14.7842 50.3394 14.9182 51.0347 14.9018C52.1837 14.9053 53.2937 14.4847 54.1517 13.7204C54.9084 13.0391 55.4097 12.5038 55.625 11.4088L50.3862 11.4319L50.3473 7.97672H57.9943Z" fill="#0074F0"/>
<path d="M17.4126 6.92247C17.5541 7.49946 17.6432 8.08806 17.6788 8.68109C17.8013 10.5643 17.369 12.4421 16.4354 14.0821C15.0062 16.5444 12.3701 18.2885 9.53709 18.5498C8.81641 18.6145 8.09035 18.5847 7.3774 18.461C6.24378 18.2663 5.16016 17.8483 4.18953 17.2311C3.70802 16.9242 3.25995 16.5678 2.85264 16.1677C2.71287 16.0303 2.57311 15.8918 2.43699 15.7508C2.25554 15.5653 2.08472 15.3697 1.92532 15.165C1.84754 15.0617 1.77219 14.9572 1.69927 14.8502C1.6239 14.7511 1.55451 14.6476 1.49144 14.5403L11.4962 4.40425L11.3674 4.32404C11.3237 4.2973 11.2799 4.27299 11.2349 4.24869C9.83242 3.49638 8.03613 3.51218 6.62874 4.24139C5.93854 4.60997 5.33638 5.1237 4.86369 5.74724C4.391 6.37078 4.059 7.08932 3.89055 7.85343C3.70141 8.70024 3.67256 9.57498 3.80548 10.4324C3.80826 10.4463 3.81079 10.4603 3.8133 10.4741C3.81626 10.4904 3.8192 10.5066 3.82249 10.5223L0.94696 13.4538C0.928741 13.4161 0.910489 13.3784 0.893484 13.3408C0.347231 12.1572 0.0449402 10.8757 0.00464056 9.57271C-0.0356591 8.26976 0.186859 6.97204 0.658921 5.75694C0.739135 5.55519 0.827856 5.35587 0.921438 5.15899C1.8998 3.13542 3.66085 1.37194 5.77435 0.572237C7.55665 -0.11133 9.51532 -0.184612 11.3437 0.363863C13.1721 0.912339 14.767 2.05161 15.8788 3.60333V3.61062C15.8987 3.63824 15.9186 3.66556 15.9385 3.69286C16 3.7773 16.0613 3.86151 16.1219 3.95336L16.1997 4.07489L6.24713 14.2182C7.39199 14.9365 8.90875 15.1006 10.197 14.7287C10.3745 14.6774 10.549 14.6161 10.7196 14.5452L10.8205 14.5026C12.5402 13.7503 13.6936 12.0829 13.9586 10.2416C14.0209 9.81062 14.0347 9.37402 13.9999 8.93996C13.9901 8.82085 13.9087 8.12324 13.9087 8.12324L16.8073 5.16871C16.8908 5.34696 16.9698 5.52724 17.0443 5.70954C17.0403 5.7136 17.1462 6.02384 17.1976 6.17457C17.2078 6.20445 17.2159 6.22819 17.2206 6.24187C17.2927 6.4663 17.3567 6.69317 17.4126 6.92247Z" fill="#0074F0"/>
<path fill-rule="evenodd" clip-rule="evenodd" d="M33.9508 6.29598C33.9664 7.42893 33.6485 8.54144 33.0366 9.49508C32.4226 10.4531 31.5424 11.2111 30.5039 11.6762L34.6832 18.4247H30.4197L26.6506 12.2584H23.7298V18.4247H19.8911V1.00728C19.891 0.896199 19.9127 0.786175 19.9551 0.68349C19.9974 0.580805 20.0596 0.487471 20.138 0.408813C20.2164 0.330155 20.3096 0.267715 20.4122 0.225059C20.5147 0.182403 20.6247 0.160366 20.7358 0.160206H27.7711C28.5826 0.139829 29.3898 0.284329 30.1439 0.584962C31.2822 1.03927 32.2557 1.82859 32.9355 2.84842C33.6153 3.86824 33.9694 5.07049 33.9508 6.29598ZM29.4811 8.04139C29.7266 7.80704 29.9204 7.5239 30.0499 7.21019C30.1771 6.89704 30.2366 6.56052 30.2244 6.22275C30.2348 5.89609 30.1805 5.57059 30.0647 5.26498C29.9489 4.95937 29.7738 4.67966 29.5495 4.44195C29.3219 4.20697 29.0466 4.0235 28.7422 3.90391C28.4377 3.78432 28.1112 3.73138 27.7845 3.74867H23.7371V8.74688H27.6137C27.9576 8.75995 28.3008 8.70435 28.6231 8.58332C28.9454 8.46116 29.2406 8.27705 29.4921 8.04139H29.4811Z" fill="#0074F0"/>
<path d="M36.1444 0.158315H39.9271V18.4247H36.1444V0.158315Z" fill="#0074F0"/>
<path d="M61.9404 0.158315H65.723V18.4247H61.9404V0.158315Z" fill="#0074F0"/>
<path d="M80.3455 0.161977H80.5798L80.5895 0.163197H84.1479V16.3502C84.1504 16.8943 83.9438 17.4186 83.5707 17.8146C83.3917 18.0055 83.1757 18.158 82.9359 18.2629C82.6962 18.3677 82.4376 18.4228 82.1759 18.4247H80.2771C79.903 18.4231 79.5376 18.3115 79.2265 18.1038C78.9072 17.8934 78.6534 17.5974 78.4943 17.2496L71.9512 5.1688V18.4223H68.1585V2.2328C68.156 1.68872 68.3626 1.16446 68.7357 0.768458C69.085 0.395817 69.5676 0.17648 70.078 0.158317H72.1147C72.488 0.157787 72.8532 0.267755 73.1641 0.47437C73.4817 0.684798 73.733 0.980997 73.889 1.32857L80.3455 13.1653V0.161977Z" fill="#0074F0"/>
<path d="M97.6868 0.284593H90.459V18.4796H97.6385C102.691 18.4796 106.51 15.1227 106.51 9.38208C106.51 3.64142 102.739 0.284593 97.6868 0.284593ZM97.6868 2.76573C101.216 2.76573 103.633 5.02794 103.633 9.38208C103.633 13.7362 101.168 15.9984 97.6626 15.9984H93.3114V2.76573H97.6868Z" fill="black"/>
<path d="M114.394 5.78201C110.695 5.78201 107.915 8.28746 107.915 12.2524C107.915 16.193 110.695 18.7228 114.394 18.7228C118.068 18.7228 120.848 16.193 120.848 12.2524C120.848 8.28746 118.068 5.78201 114.394 5.78201ZM114.394 8.11719C116.521 8.11719 118.116 9.64966 118.116 12.2524C118.116 14.8308 116.521 16.3633 114.394 16.3633C112.242 16.3633 110.671 14.8308 110.671 12.2524C110.671 9.64966 112.242 8.11719 114.394 8.11719Z" fill="black"/>
<path d="M125.582 0.105103H122.874V18.4796H125.582V0.105103Z" fill="black"/>
<path d="M130.907 0.105103H128.2V18.4796H130.907V0.105103Z" fill="black"/>
<path d="M138.461 5.78201C135.367 5.78201 133.53 7.99556 133.53 10.1848L136.261 10.2821C136.261 9.16316 136.938 8.16584 138.485 8.16584C140.008 8.16584 140.685 9.16316 140.685 10.7686V11.1335L137.736 11.3037C135.198 11.4497 133.191 12.3984 133.191 15.0741C133.191 17.4093 134.859 18.7228 137.325 18.7228C138.703 18.7228 139.815 18.1877 140.685 17.3606V18.4796H143.416V10.7199C143.416 7.53339 141.652 5.78201 138.461 5.78201ZM140.709 13.2497V13.6876C140.709 15.5849 139.5 16.4363 137.784 16.4363C136.696 16.4363 135.923 16.0714 135.923 15.0254C135.923 13.9065 136.841 13.493 138.123 13.42L140.709 13.2497Z" fill="black"/>
<path d="M152.308 5.85498C150.325 5.85498 149.238 6.77932 148.778 7.75232V6.00093H146.143V18.4796H148.851V11.6929C148.851 9.86858 150.18 8.50639 152.308 8.50639V5.85498Z" fill="black"/>
</svg>
