<svg width="255" height="49" viewBox="0 0 255 49" fill="none" xmlns="http://www.w3.org/2000/svg">
<g clip-path="url(#clip0_753_3)">
<path d="M42.6213 29.4875C51.7302 31.1821 57.9581 34.4868 57.9581 38.2998C57.9581 43.8075 44.9938 48.2984 28.9791 48.2984C12.9643 48.2984 0 43.8499 0 38.2998C0 34.4868 6.18559 31.1821 15.3369 29.4875C19.3194 30.5043 23.9798 31.0974 28.9791 31.0974C33.9784 31.0974 38.6388 30.5466 42.6213 29.4875ZM39.1472 13.3456C46.9003 14.6166 52.2386 17.3281 52.2386 20.5057C52.2386 24.8695 41.8163 28.4283 28.9791 28.4283C16.1418 28.4283 5.71955 24.8695 5.71955 20.4633C5.71955 17.3281 11.0578 14.6166 18.811 13.3033C21.7767 14.0659 25.2508 14.4895 28.9791 14.4895C32.665 14.5319 36.1391 14.0659 39.1472 13.3456ZM29.0638 0C38.6811 0 46.4767 2.71149 46.4767 6.01612C46.4767 9.32075 38.6811 12.0322 29.0638 12.0322C19.4465 12.0322 11.6509 9.32075 11.6509 6.01612C11.6509 2.71149 19.4465 0 29.0638 0ZM94.9022 39.825C97.3171 39.825 99.3508 39.4437 100.918 38.7235C102.528 37.9609 103.715 36.9441 104.52 35.6307C105.325 34.3173 105.748 32.7921 105.706 31.2245C105.706 29.6146 105.367 28.2588 104.731 27.1149C104.096 26.0134 103.249 25.1237 102.189 24.4882C101.215 23.895 100.113 23.5137 98.9695 23.4713V23.1748C99.9439 22.9629 100.918 22.5393 101.766 21.9461C102.613 21.3954 103.249 20.6328 103.757 19.743C104.265 18.8533 104.477 17.7518 104.477 16.4384C104.477 14.8708 104.096 13.4727 103.333 12.2441C102.571 11.0154 101.427 10.041 99.9015 9.32075C98.3763 8.60051 96.4698 8.26158 94.182 8.26158H82.065V39.8674H94.9022V39.825ZM93.5041 21.6496H87.8269V12.922H93.6312C95.3259 12.922 96.5969 13.3456 97.4442 14.1082C98.2916 14.9132 98.7576 15.8876 98.7576 17.1163C98.7576 18.0484 98.5034 18.8533 98.0797 19.5312C97.6137 20.2091 96.9782 20.7175 96.2156 21.0988C95.3259 21.4801 94.4362 21.6496 93.5041 21.6496ZM94.0125 35.0376H87.8693V25.7592H94.182C95.3682 25.7592 96.3851 25.971 97.2324 26.437C98.0797 26.8607 98.7576 27.4538 99.2236 28.2165C99.6897 28.9791 99.9439 29.8264 99.9439 30.7585C99.9439 32.0295 99.4779 33.0463 98.5458 33.8513C97.5713 34.6562 96.0885 35.0376 94.0125 35.0376ZM116.086 40.2911C117.314 40.2911 118.374 40.1216 119.306 39.7827C120.238 39.4437 121 38.9777 121.593 38.4269C122.229 37.8761 122.695 37.2406 123.034 36.5628H123.203V39.825H128.584V23.9798C128.584 22.4122 128.287 21.0988 127.737 20.0396C127.186 19.0228 126.423 18.1755 125.491 17.54C124.517 16.9045 123.5 16.4808 122.398 16.2266C121.297 15.93 120.153 15.8453 119.009 15.8453C117.357 15.8453 115.832 16.0995 114.476 16.5655C113.162 17.0316 111.976 17.7942 111.002 18.7686C110.027 19.7854 109.349 21.0564 108.968 22.4122L114.179 23.1748C114.433 22.3698 114.984 21.6496 115.789 21.0564C116.594 20.4633 117.653 20.1667 119.051 20.1667C120.365 20.1667 121.339 20.4633 122.017 21.1412C122.695 21.7767 123.076 22.6664 123.076 23.8526V23.9374C123.076 24.4458 122.864 24.8695 122.483 25.1237C122.102 25.3779 121.466 25.5473 120.577 25.6744C119.687 25.8015 118.585 25.9286 117.187 26.0557C116.086 26.1828 114.942 26.3523 113.84 26.6489C112.823 26.9031 111.849 27.2844 110.917 27.8352C110.07 28.3436 109.392 29.0638 108.883 29.9535C108.375 30.8432 108.121 31.9448 108.121 33.2581C108.121 34.8257 108.46 36.1391 109.18 37.1983C109.858 38.2575 110.832 39.0624 112.019 39.6132C113.205 40.0369 114.561 40.2911 116.086 40.2911ZM117.526 36.1815C116.34 36.1815 115.408 35.9273 114.645 35.3765C113.883 34.8681 113.501 34.0631 113.501 33.0463C113.501 32.3261 113.671 31.7329 114.094 31.2669C114.476 30.8008 114.984 30.4619 115.62 30.2077C116.34 29.9111 117.103 29.7417 117.865 29.6569L119.179 29.4875C119.687 29.4451 120.195 29.318 120.704 29.2333C121.212 29.1485 121.678 29.0214 122.102 28.8943C122.526 28.7672 122.822 28.6401 122.992 28.4707V31.2669C122.992 32.1566 122.78 32.9616 122.314 33.6818C121.848 34.4444 121.212 35.0376 120.407 35.4612C119.602 35.9696 118.628 36.1815 117.526 36.1815ZM138.583 39.825V8.21921H132.99V39.825H138.583ZM149.937 40.2911C151.166 40.2911 152.267 40.1216 153.157 39.7827C154.089 39.4437 154.852 38.9777 155.445 38.4269C156.08 37.8761 156.546 37.2406 156.885 36.5628H157.055V39.825H162.478V23.9798C162.478 22.4122 162.181 21.0988 161.63 20.0396C161.08 19.0228 160.317 18.1755 159.385 17.54C158.41 16.9045 157.394 16.4808 156.292 16.2266C155.191 15.93 154.047 15.8453 152.903 15.8453C151.25 15.8453 149.725 16.0995 148.369 16.5655C147.056 17.0316 145.87 17.7942 144.895 18.7686C143.921 19.7854 143.201 21.0564 142.862 22.4122L148.073 23.1748C148.369 22.3698 148.878 21.6496 149.683 21.0564C150.488 20.4633 151.547 20.1667 152.945 20.1667C154.258 20.1667 155.233 20.4633 155.911 21.1412C156.589 21.7767 156.928 22.6664 156.928 23.8526V23.9374C156.928 24.4458 156.716 24.8695 156.334 25.1237C155.953 25.3779 155.318 25.5473 154.428 25.6744C153.581 25.8015 152.437 25.9286 151.039 26.0557C149.895 26.1828 148.793 26.3523 147.692 26.6489C146.675 26.9031 145.7 27.2844 144.811 27.8352C143.963 28.3436 143.243 29.0638 142.777 29.9535C142.269 30.8432 142.057 31.9448 142.057 33.2581C142.057 34.8257 142.396 36.1391 143.116 37.1983C143.794 38.2575 144.768 39.0624 145.955 39.6132C147.098 40.0369 148.454 40.2911 149.937 40.2911ZM151.42 36.1815C150.276 36.1815 149.302 35.9273 148.539 35.3765C147.776 34.8681 147.437 34.0631 147.437 33.0463C147.437 32.3261 147.607 31.7329 147.988 31.2669C148.369 30.8008 148.878 30.4619 149.556 30.2077C150.276 29.9111 151.039 29.7417 151.801 29.6569L153.115 29.4875C153.623 29.4451 154.131 29.318 154.64 29.2333C155.148 29.1485 155.614 29.0214 156.038 28.8943C156.462 28.7672 156.758 28.6401 156.928 28.4707V31.2669C156.928 32.1566 156.716 32.9616 156.25 33.6818C155.784 34.4444 155.148 35.0376 154.343 35.4612C153.496 35.9696 152.521 36.1815 151.42 36.1815ZM172.476 39.825V25.9286C172.476 24.7847 172.688 23.8103 173.154 23.0053C173.578 22.2003 174.171 21.5648 174.934 21.1412C175.739 20.7175 176.628 20.5057 177.518 20.5057C178.958 20.5057 180.102 20.9717 180.907 21.8614C181.712 22.7511 182.136 23.9798 182.136 25.5897V39.825H187.728V24.7424C187.728 22.8358 187.389 21.2259 186.754 19.9125C186.076 18.5991 185.144 17.5823 183.915 16.8621C182.687 16.1418 181.246 15.8029 179.636 15.8029C177.857 15.8029 176.374 16.1842 175.188 16.9892C174.002 17.7518 173.112 18.8533 172.561 20.1667H172.264V16.1418H166.926V39.8674H172.476V39.825ZM202.557 40.2911C204.548 40.2911 206.285 39.9098 207.726 39.1895C209.166 38.5117 210.352 37.4525 211.242 36.1391C212.089 34.8257 212.598 33.3429 212.725 31.6906H207.387C207.26 32.4532 206.921 33.2158 206.455 33.8513C206.031 34.4444 205.48 34.9104 204.802 35.207C204.124 35.5036 203.404 35.6731 202.599 35.6731C201.413 35.6731 200.439 35.3765 199.549 34.741C198.702 34.1055 198.024 33.2158 197.558 32.0719C197.092 30.9279 196.837 29.5298 196.837 27.9199C196.837 26.3099 197.092 24.9542 197.558 23.8103C198.024 22.6664 198.702 21.7767 199.591 21.1835C200.439 20.548 201.455 20.2515 202.599 20.2515C203.955 20.2515 205.014 20.6328 205.819 21.3954C206.624 22.158 207.133 23.1324 207.344 24.2763H212.683C212.556 22.5816 212.047 21.0564 211.157 19.7854C210.268 18.5144 209.039 17.4552 207.599 16.8197C206.116 16.0995 204.421 15.7605 202.472 15.7605C200.142 15.7605 198.151 16.2689 196.456 17.3281C194.761 18.3449 193.406 19.8701 192.516 21.6496C191.584 23.4713 191.118 25.6321 191.118 28.047C191.118 30.4619 191.584 32.5803 192.474 34.402C193.406 36.2238 194.677 37.6643 196.371 38.7235C198.151 39.7827 200.184 40.2911 202.557 40.2911ZM226.621 40.2911C228.443 40.2911 230.096 39.9945 231.536 39.4437C232.976 38.893 234.12 38.088 235.052 37.0712C235.985 36.0544 236.62 34.8257 236.917 33.47L231.705 32.8768C231.451 33.5547 231.07 34.1055 230.604 34.5715C230.095 35.0376 229.545 35.3765 228.867 35.5883C228.147 35.8425 227.426 35.9696 226.664 35.9273C225.435 35.9273 224.376 35.6731 223.486 35.1647C222.554 34.6562 221.834 33.8513 221.368 32.9192C220.859 31.9448 220.605 30.7585 220.605 29.3604V29.4875H237.128V27.7928C237.128 25.7168 236.832 23.9374 236.239 22.4122C235.646 20.887 234.883 19.6583 233.866 18.6839C232.892 17.7094 231.705 16.9892 230.392 16.5232C229.079 16.0571 227.681 15.8029 226.24 15.8029C223.995 15.8029 222.003 16.3113 220.351 17.3705C218.656 18.4297 217.301 19.9125 216.453 21.6919C215.521 23.5137 215.055 25.6744 215.055 28.1317C215.055 30.6314 215.521 32.7497 216.453 34.5715C217.385 36.3933 218.699 37.8338 220.436 38.8082C222.173 39.7827 224.249 40.2911 226.621 40.2911ZM220.648 25.5473C220.69 24.7 220.944 23.895 221.368 23.1324C221.834 22.2427 222.512 21.5225 223.402 20.9717C224.291 20.4209 225.35 20.1243 226.41 20.1667C227.469 20.1667 228.401 20.4209 229.206 20.887C230.011 21.3954 230.646 22.0309 231.112 22.8782C231.578 23.7255 231.79 24.6576 231.79 25.7592H220.648V25.5473ZM246.28 39.825V25.8863C246.28 24.8695 246.492 23.9798 246.958 23.2171C247.424 22.4545 248.059 21.819 248.864 21.3954C249.711 20.9293 250.644 20.7175 251.576 20.7175C252.042 20.7175 252.55 20.7599 253.058 20.8022C253.567 20.887 253.948 20.9293 254.16 21.0141V15.8876C253.863 15.8453 253.524 15.8029 253.186 15.7605C252.847 15.7182 252.508 15.7182 252.126 15.7182C250.771 15.7182 249.542 16.0995 248.483 16.8197C247.424 17.5823 246.703 18.5991 246.237 19.9972H245.983V16.0571H240.56V39.7827L246.28 39.825Z" fill="black"/>
</g>
<defs>
<clipPath id="clip0_753_3">
<rect width="254.16" height="48.2984" fill="white"/>
</clipPath>
</defs>
</svg>
