<svg width="331" height="63" viewBox="0 0 331 63" fill="none" xmlns="http://www.w3.org/2000/svg">
<g clip-path="url(#clip0_753_38)">
<path d="M27.4639 0L0 15.6851V47.0745L27.4639 62.7596L54.9278 47.0745V15.6851L27.4639 0ZM27.4639 0L0 15.6851V47.0745L27.4639 62.7596L54.9278 47.0745V15.6851L27.4639 0Z" fill="white"/>
<path d="M38.3213 50.5152H34.4173L29.7364 46.2672V44.0951L34.5727 39.5203V32.2736L40.9045 28.1794L48.1104 33.5807L38.3213 50.5152ZM22.142 39.059L22.8607 32.2544L20.4911 26.1611H34.4756L32.1642 32.2544L32.8246 39.059H27.4251H22.142ZM25.3274 46.2672L20.6465 50.5729H16.6842L6.83684 33.5807L14.101 28.237L20.4911 32.2736V39.5203L25.3274 44.0951V46.2672ZM16.626 13.5707H38.263L40.8463 24.4695H14.101L16.626 13.5707ZM27.4639 0L0 15.6851V47.0745L27.4639 62.7596L54.9278 47.0745V15.6851L27.4639 0Z" fill="#03316C"/>
<path d="M85.7713 45.9404C78.5072 45.9404 73.1659 40.3276 73.1659 33.4077C73.1659 26.4878 78.5654 20.7212 85.8296 20.7212C90.4522 20.7212 93.3268 22.4127 95.5799 24.8539L92.1032 28.5637C90.394 26.7569 88.5876 25.5651 85.7713 25.5651C81.6925 25.5651 78.7208 29.0443 78.7208 33.3116C78.7208 37.6749 81.7508 41.1541 86.0432 41.1541C88.6848 41.1541 90.6076 39.9047 92.3751 38.1555L95.7352 41.4809C93.3268 44.0182 90.5105 45.9404 85.7713 45.9404Z" fill="#002E73"/>
<path d="M106.379 45.9405H100.766V20.7598H106.379V26.6417C107.913 23.0472 110.73 20.5483 115.022 20.7598V26.6417H114.692C109.797 26.6417 106.379 29.7941 106.379 36.2334V45.9405Z" fill="#002E73"/>
<path d="M144.351 20.6443L131.978 52.6873H126.307L129.007 45.9403L118.363 20.6443H124.364L131.59 39.3472L138.524 20.6443H144.351Z" fill="#002E73"/>
<path d="M160.879 25.5074C157.073 25.5074 153.771 28.5637 153.771 33.2923C153.771 38.0401 157.131 41.0772 160.879 41.0772C164.725 41.0772 167.872 38.0786 167.872 33.2923C167.872 28.5061 164.667 25.5074 160.879 25.5074ZM162.142 45.8827C158.121 45.8827 155.596 43.8644 153.887 41.6346V52.6873H148.274V20.6443H153.887V25.1614C155.713 22.6626 158.238 20.6443 162.142 20.6443C167.93 20.6443 173.543 25.1614 173.543 33.2347C173.543 41.3079 167.988 45.8827 162.142 45.8827Z" fill="#002E73"/>
<path d="M185.818 25.9304V37.8096C185.818 39.9432 186.925 40.8082 188.848 40.8082H191.043V45.7674H187.197C183.119 45.7674 180.205 43.9606 180.205 38.6745V25.9304H177.117V21.1826H180.205V14.551H185.818V21.2018H191.043V25.9496L185.818 25.9304Z" fill="#002E73"/>
<path d="M208.718 25.5075C204.212 25.5075 201.337 28.9866 201.337 33.2539C201.337 37.5596 204.426 41.0964 208.776 41.0964C213.282 41.0964 216.157 37.6173 216.157 33.35C216.254 29.0443 213.127 25.5075 208.718 25.5075ZM208.718 45.9404C201.279 45.9404 195.782 40.3276 195.782 33.4077C195.782 26.4301 201.337 20.7212 208.835 20.7212C216.332 20.7212 221.828 26.334 221.828 33.3116C221.828 40.1546 216.312 45.9404 208.718 45.9404Z" fill="#002E73"/>
<path d="M275.397 25.5075C270.891 25.5075 268.016 28.9866 268.016 33.2539C268.016 37.5596 271.104 41.0964 275.455 41.0964C279.961 41.0964 282.836 37.6173 282.836 33.35C282.874 29.0443 279.806 25.5075 275.397 25.5075ZM275.397 45.9404C267.958 45.9404 262.461 40.3276 262.461 33.4077C262.461 26.4301 268.016 20.7212 275.513 20.7212C283.01 20.7212 288.507 26.334 288.507 33.3116C288.507 40.1546 282.933 45.9404 275.397 45.9404Z" fill="#002E73"/>
<path d="M321.759 20.6443C327.1 20.6443 330.344 23.9697 330.344 29.9093V45.8827H324.731V31.6008C324.731 27.7372 322.905 25.7189 319.778 25.7189C316.748 25.7189 314.553 27.8525 314.553 31.7161V45.9403H308.94V31.6008C308.94 27.8333 307.075 25.7189 303.987 25.7189C300.899 25.7189 298.762 28.0063 298.762 31.7738V45.9403H293.149V20.702H298.762V24.8347C300.355 22.701 302.453 20.702 306.201 20.702C309.717 20.702 312.145 22.3935 313.465 24.95C315.485 22.3358 318.069 20.6443 321.759 20.6443Z" fill="#002E73"/>
<path d="M226.723 40.5391L229.151 39.1743H229.481L231.948 40.5391L232.123 40.8082V43.653L231.948 43.9221L229.481 45.2869H229.151L226.723 43.9221L226.568 43.653V40.8082L226.723 40.5391Z" fill="#002E73"/>
<path d="M249.137 45.8827C241.873 45.7097 236.648 40.0008 236.745 33.0809C236.842 26.161 242.358 20.4905 249.681 20.6635C254.303 20.7789 257.178 22.5088 259.373 25.0269L255.857 28.6791C254.206 26.8722 252.381 25.5651 249.584 25.5267C245.505 25.469 242.475 28.8521 242.417 33.1578C242.3 37.5212 245.272 41.058 249.584 41.1157C252.225 41.1733 254.206 39.9623 255.974 38.2324L259.276 41.6154C256.79 44.1335 253.915 45.9788 249.137 45.8827Z" fill="#002E73"/>
</g>
<defs>
<clipPath id="clip0_753_38">
<rect width="330.311" height="62.8" fill="white"/>
</clipPath>
</defs>
</svg>
