<svg width="227" height="68" viewBox="0 0 227 68" fill="none" xmlns="http://www.w3.org/2000/svg">
<g clip-path="url(#clip0_753_30)">
<path d="M84.1273 16.9483V36.1341H65.0664V19.4258C65.0664 18.0526 63.9525 16.9387 62.5793 16.9387H56.1265V62.8674C56.1265 64.2405 57.2404 65.3544 58.6135 65.3544H65.0664V43.9313H84.1369V62.8577C84.1177 64.2309 85.2124 65.364 86.5855 65.3832H86.6239H93.0768V19.4258C93.0768 18.0526 91.9629 16.9387 90.5898 16.9387H84.1273V16.9483ZM121.98 28.9514V51.9685C121.999 54.0619 120.905 56.0112 119.1 57.0867C114.049 60.0058 108.815 56.3473 108.815 51.546V31.4385C108.815 30.0653 107.701 28.9514 106.328 28.9514H99.8753V52.3718C99.8945 59.9194 106.002 66.0266 113.549 66.065H117.217C124.775 66.0458 130.901 59.9194 130.92 52.3622V31.4385C130.92 30.0653 129.806 28.9514 128.433 28.9514H121.98Z" fill="#1B2143"/>
<path d="M219.609 65.3832H226.061V32.7732C226.061 31.4 224.948 30.2861 223.574 30.2861H217.122V62.8769C217.112 64.2501 218.216 65.3736 219.589 65.3832H219.609Z" fill="#2CA6E0"/>
<path d="M226.2 23.7557C227.253 21.2128 226.045 18.2974 223.502 17.2441C220.959 16.1907 218.044 17.3983 216.991 19.9412C215.937 22.4842 217.145 25.3996 219.688 26.4529C222.231 27.5063 225.146 26.2987 226.2 23.7557Z" fill="#2CA6E0"/>
<path d="M153.985 28.9324C144.623 28.9324 136.96 35.6253 136.96 44.9877V50.0482C136.96 59.4106 144.623 66.0651 153.985 66.0651C163.348 66.0651 171.011 59.4106 171.011 50.0482V44.9877C171.02 35.6253 163.357 28.9324 153.985 28.9324ZM162.032 50.6532C162.032 55.0799 158.412 58.0279 153.976 58.0279C149.539 58.0279 145.929 55.0799 145.929 50.6532V44.3347C145.929 39.908 149.549 36.96 153.976 36.96C158.402 36.96 162.032 39.908 162.032 44.3347V50.6532Z" fill="#1B2143"/>
<path d="M194.076 28.9323C191.272 28.9131 188.506 29.5469 185.981 30.7664V19.4739C185.981 18.1007 184.867 16.9868 183.494 16.9868H177.041V50.0481C177.041 59.4106 184.704 66.0651 194.066 66.0651C203.428 66.0651 211.091 59.4106 211.091 50.0481V44.9876C211.101 35.6252 203.457 28.9323 194.076 28.9323ZM202.132 50.6531C202.132 55.0798 198.512 58.0278 194.076 58.0278C189.649 58.0278 186.029 55.0798 186.029 50.6531V44.3347C186.029 39.9079 189.649 36.96 194.076 36.96C198.502 36.96 202.132 39.9079 202.132 44.3347V50.6531Z" fill="#2CA6E0"/>
<path d="M29.1055 20.9127C29.1055 11.1566 24.3523 2.75443 20.7322 0.0273255C20.7322 0.0273255 20.4537 -0.126314 20.4825 0.267387C20.1848 19.117 10.5536 24.2256 5.2626 31.1009C-6.95175 46.9834 4.39838 64.3927 15.979 67.6095C22.4318 69.4148 14.481 64.4215 13.4535 53.8876C12.1956 41.1739 29.1055 31.4562 29.1055 20.9127Z" fill="#1B2143"/>
<path d="M34.6553 27.3383C34.5785 27.2903 34.4729 27.2519 34.4057 27.3767C34.204 29.7486 31.7842 34.8187 28.7114 39.4855C18.2927 55.2911 24.227 62.9155 27.5687 67.0158C29.5084 69.3876 27.5687 67.0158 32.4083 64.5863C38.3907 60.9566 42.2701 54.6766 42.8462 47.7052C43.7969 36.4703 37.0559 29.3933 34.6553 27.3383Z" fill="#2CA6E0"/>
</g>
<defs>
<clipPath id="clip0_753_30">
<rect width="226.58" height="67.9951" fill="white"/>
</clipPath>
</defs>
</svg>
