<svg width="264" height="42" viewBox="0 0 264 42" fill="none" xmlns="http://www.w3.org/2000/svg">
<g clip-path="url(#clip0_753_19)">
<path d="M24.5593 0.0438174C29.1203 -0.263174 33.7691 0.6578 37.8477 2.71903C43.8998 5.70123 48.7239 11.0517 50.9606 17.3669C51.9693 20.1737 52.4955 23.112 52.4955 26.0942V37.1021C52.4955 37.5406 52.4955 38.0231 52.4078 38.4616C52.1447 39.558 51.3553 40.5667 50.3027 41.0491C49.5572 41.4 48.7239 41.4438 47.9784 41.3123C46.3119 41.0053 44.9962 39.4264 44.9962 37.7161C44.9962 34.2953 44.9962 30.8745 44.9962 27.4538C45.04 26.4889 45.04 25.4364 44.5138 24.6031C43.6805 23.0243 41.5754 22.2788 39.9527 22.9366C38.5494 23.419 37.5407 24.8663 37.4968 26.3574C37.4968 29.822 37.4968 33.2866 37.4968 36.7512C37.4968 37.4091 37.5407 38.0669 37.3214 38.6809C36.9705 39.9089 35.9619 40.8737 34.7339 41.2245C33.1112 41.6631 31.2693 40.9614 30.4799 39.4703C29.9097 38.5932 29.9536 37.4968 29.9975 36.4881C29.9975 33.0235 29.9975 29.6027 29.9975 26.1381C29.9536 24.3839 28.5063 22.805 26.796 22.5858C25.6557 22.4103 24.4716 22.805 23.6383 23.5945C22.8928 24.2961 22.4981 25.3048 22.4981 26.3135V36.3565C22.4981 37.1898 22.5858 38.0669 22.2788 38.8563C21.7964 40.3036 20.3491 41.3561 18.8142 41.3123C17.2354 41.4 15.7004 40.3036 15.218 38.8563C14.9549 38.1108 14.9987 37.3652 14.9987 36.5758C14.9987 33.1112 14.9987 29.6466 14.9987 26.182C14.9987 24.4716 13.6392 22.8928 11.9727 22.5858C10.4377 22.2788 8.77118 23.0243 7.98178 24.4277C7.67479 24.9978 7.49936 25.6557 7.49936 26.3135V37.5845C7.49936 38.6809 7.01695 39.7773 6.18369 40.479C4.91186 41.5754 2.85064 41.6631 1.53496 40.6544C0.570127 39.9966 0 38.8563 0 37.6722V26.2697C0 21.9718 1.0964 17.6739 3.15763 13.8584C4.82415 10.7447 7.14852 7.98174 9.91144 5.78894C13.99 2.36818 19.2089 0.350809 24.5593 0.0438174Z" fill="#5741D9"/>
<path d="M127.051 13.2445H121.349C121.569 9.25364 122.402 5.65745 126.042 3.37695C129.682 1.14029 133.673 0.614021 137.839 0.964868C140.076 1.14029 142.312 1.62271 144.374 2.58754C148.014 4.25406 149.812 7.1047 149.812 11.0956C149.812 18.1564 149.812 25.2172 149.812 32.278C149.812 34.8655 150.338 35.3479 152.926 35.0848C153.189 35.0409 153.496 34.9971 153.759 34.9532C153.803 35.0848 153.803 35.2164 153.803 35.3041V39.602C151.741 40.3036 149.636 40.5229 147.575 39.9528C146.04 39.5142 145.075 38.4178 144.549 36.9706C144.286 36.225 144.111 35.4356 143.891 34.6024C143.672 34.8655 143.497 35.0848 143.277 35.3041C138.76 39.8651 133.41 41.7948 127.094 40.1721C122.621 39.0318 119.551 34.9532 119.42 30.3045C119.376 28.8134 119.507 27.3223 119.858 25.875C120.691 22.542 123.06 20.5246 126.042 19.1651C128.147 18.2003 130.427 17.9371 132.708 17.6301C135.383 17.2793 138.015 16.9723 140.69 16.5776C142.488 16.3144 143.409 15.3496 143.672 13.5515C144.242 9.91148 142.619 7.4994 139.111 6.62228C137.006 6.09601 134.857 6.0083 132.708 6.40301C129.55 6.97313 127.796 8.77123 127.182 11.885C127.226 12.3236 127.138 12.7621 127.051 13.2445ZM143.847 20.2615C141.216 21.6649 138.672 22.0157 136.085 22.4104C133.936 22.7613 131.743 23.0683 129.638 23.7261C126.875 24.6471 125.603 26.9276 125.866 29.9975C126.086 32.5411 127.796 34.6024 130.559 35.0409C134.813 35.7426 138.585 34.5585 141.567 31.4009C142.444 30.4799 143.146 29.1642 143.321 27.9363C143.716 25.4803 143.672 22.9806 143.847 20.2615ZM225.112 27.6293C224.981 28.2433 224.893 28.7695 224.762 29.2519C222.306 36.7513 217.306 39.9528 211.254 40.6545C200.772 41.7947 194.764 34.9532 193.229 27.6731C192.001 21.8842 192.177 16.139 194.72 10.7009C197.132 5.56974 200.992 2.19283 206.737 1.18415C213.622 -0.0438183 223.358 3.37695 224.981 14.1217C225.419 16.8846 225.507 19.7352 225.77 22.6297H199.106C199.325 26.5767 199.939 30.2606 202.834 33.1113C204.018 34.2954 205.553 34.8655 207.219 35.1725C212.613 36.1373 217.087 33.5498 218.841 28.331C219.016 27.7608 219.28 27.5854 219.85 27.6293C221.56 27.6293 223.27 27.6293 225.112 27.6293ZM199.325 17.5424H219.28C219.06 15.218 218.666 13.0691 217.569 11.0517C216.517 9.12207 214.982 7.71868 212.877 7.01699C205.991 4.64877 198.887 10.1308 199.325 17.5424ZM239.453 39.3827H233.401V1.75428H239.146V7.01699C239.585 6.53457 239.848 6.22758 240.111 5.92059C244.234 1.228 249.409 3.76105e-05 255.285 1.44728C259.364 2.45597 261.644 5.35046 262.434 9.38521C262.741 11.0517 262.96 12.7621 262.96 14.4286C263.004 22.4981 263.004 30.5676 263.004 38.6371C263.004 38.8564 262.96 39.0757 262.96 39.3388H256.776V38.3301C256.776 30.7869 256.82 23.2437 256.733 15.7005C256.733 14.0339 256.469 12.3236 255.987 10.7009C255.198 8.06953 253.093 6.66614 250.33 6.53457C245.286 6.35915 241.295 9.03436 240.067 13.5077C239.629 15.1303 239.497 16.8407 239.497 18.5511C239.453 25.1733 239.453 31.7517 239.453 38.2863V39.3827ZM159.679 1.75428H165.512V17.7178C165.863 17.367 166.082 17.1916 166.302 16.9723C171.082 12.1043 175.862 7.19241 180.643 2.3244C181.037 1.88584 181.432 1.71042 182.046 1.71042C184.283 1.75428 186.563 1.71042 189.019 1.71042C188.668 2.06127 188.493 2.28055 188.273 2.49983C184.063 6.71 179.897 10.964 175.643 15.1303C175.161 15.6128 175.161 15.9197 175.468 16.446C180.072 23.77 184.633 31.0939 189.194 38.4178C189.37 38.681 189.501 38.9441 189.721 39.3388C189.414 39.3827 189.194 39.3827 188.931 39.3827C186.826 39.3827 184.765 39.3827 182.66 39.3827C182.09 39.3827 181.827 39.1634 181.52 38.7248C178.011 32.8481 174.503 26.9714 170.994 21.0509C170.819 20.7878 170.687 20.5246 170.468 20.2176C168.845 21.8403 167.266 23.3753 165.688 24.9979C165.468 25.2172 165.425 25.6119 165.425 25.9189C165.425 30.0414 165.425 34.1638 165.425 38.2863V39.3388C164.284 39.3388 163.144 39.3388 162.048 39.3388C161.258 39.3388 160.162 39.5581 159.723 39.1195C159.329 38.7687 159.548 37.6284 159.548 36.839V2.76296C159.679 2.54368 159.679 2.19283 159.679 1.75428ZM92.3605 1.71042C87.6241 6.40301 83.0192 11.0079 78.3705 15.6128C83.3701 23.5945 88.2381 31.4009 93.1938 39.3827C92.7991 39.3827 92.536 39.4265 92.2728 39.4265C90.2555 39.4265 88.1942 39.4265 86.1769 39.4265C85.6067 39.4265 85.2559 39.2072 84.9489 38.7248C81.4404 32.8481 77.9319 26.9714 74.4235 21.0509C74.2919 20.7878 74.1165 20.5685 73.8972 20.2176C73.0201 21.1386 72.2307 22.1473 71.2658 22.849C69.2923 24.3401 68.7222 26.182 68.8538 28.638C69.0731 31.8395 68.8976 35.0848 68.8976 38.2863V39.3388H63.1086V1.75428H68.8976V17.4547C69.0292 17.5424 69.1608 17.6301 69.2485 17.7178C69.4239 17.4547 69.5116 17.1477 69.687 16.9284C74.4235 12.0604 79.2038 7.23627 83.9402 2.3244C84.3788 1.88584 84.7735 1.66656 85.4313 1.71042C87.4048 1.75428 89.3783 1.71042 91.3519 1.71042C91.6589 1.71042 91.922 1.71042 92.3605 1.71042ZM103.939 7.98182C106.877 3.68394 109.991 0.0877494 115.78 1.14029V7.58711C114.245 7.67483 112.71 7.63097 111.262 7.93796C107.71 8.68351 104.947 11.9289 104.377 15.8759C104.289 16.6653 104.202 17.4547 104.202 18.2441C104.202 24.9541 104.202 31.664 104.202 38.374V39.4265H98.2372V1.84199H103.939C103.939 3.8155 103.939 5.78902 103.939 7.98182Z" fill="#5741D9"/>
</g>
<defs>
<clipPath id="clip0_753_19">
<rect width="263.004" height="41.4" fill="white"/>
</clipPath>
</defs>
</svg>
