<svg width="251" height="59" viewBox="0 0 251 59" fill="none" xmlns="http://www.w3.org/2000/svg">
<path d="M197.225 29.1286C197.225 27.6799 197.225 26.2313 197.225 24.9895C197.225 23.7478 197.018 22.5061 196.811 21.4714C196.604 20.4366 196.19 19.4018 195.777 18.3671C195.363 17.3323 194.535 16.5045 193.707 15.6767C192.465 14.435 191.224 13.6072 189.568 12.7794C187.912 12.1585 186.257 11.7446 184.394 11.7446C182.532 11.7446 180.876 11.9516 179.22 12.7794C177.772 13.4002 176.323 14.435 175.081 15.4698C174.254 16.2976 173.633 17.1254 173.012 18.1601C172.598 19.1949 172.184 20.2297 171.977 21.2644C171.77 22.5061 171.563 23.7478 171.563 24.7826C171.563 26.0243 171.563 27.473 171.563 28.9216C171.563 30.3703 171.563 31.819 171.563 33.0607C171.563 34.3024 171.77 35.5441 171.977 36.5789C172.184 37.6136 172.598 38.6484 173.012 39.6831C173.426 40.7179 174.254 41.5457 175.081 42.3735C176.323 43.6152 177.565 44.443 179.22 45.0639C180.876 45.6847 182.739 46.0986 184.394 46.0986C186.257 46.0986 187.912 45.8917 189.568 45.0639C191.017 44.443 192.465 43.4083 193.707 42.3735C194.535 41.5457 195.156 40.7179 195.777 39.6831C196.19 38.6484 196.604 37.6136 196.811 36.5789C197.018 35.3371 197.225 34.0954 197.225 33.0607C197.225 32.0259 197.225 30.5773 197.225 29.1286ZM190.603 29.1286C190.603 30.7842 190.603 32.2329 190.603 33.2676C190.603 34.0954 190.396 35.1302 190.396 35.958C190.396 36.5789 190.189 37.1997 189.775 37.6136C189.568 38.0275 189.361 38.4414 188.947 38.8553C188.533 39.4762 187.912 39.8901 187.085 40.097C186.257 40.5109 185.429 40.5109 184.601 40.5109C183.773 40.5109 182.946 40.304 182.118 40.097C181.497 39.8901 180.669 39.2692 180.255 38.8553C179.841 38.4414 179.634 38.0275 179.427 37.6136C179.22 36.9928 179.013 36.5789 179.013 35.958C178.806 35.1302 178.806 34.0954 178.806 33.2676C178.806 32.2329 178.806 30.7842 178.806 29.1286C178.806 27.473 178.806 26.0243 178.806 24.9895C178.806 24.1617 179.013 23.127 179.013 22.2992C179.013 21.6783 179.22 21.0575 179.427 20.6436C179.634 20.2297 179.841 19.8158 180.255 19.4018C180.669 18.781 181.497 18.3671 182.118 18.1601C182.946 17.7462 183.773 17.7462 184.601 17.7462C185.429 17.7462 186.257 17.9532 187.085 18.1601C187.705 18.3671 188.326 18.9879 188.947 19.4018C189.361 19.8158 189.568 20.2297 189.775 20.6436C189.982 21.2644 190.189 21.6783 190.396 22.2992C190.603 23.127 190.603 24.1617 190.603 24.9895C190.603 26.0243 190.603 27.473 190.603 29.1286Z" fill="#23AF91"/>
<path d="M250.619 12.5723C250.619 12.1584 250.412 11.9514 249.998 11.9514H244.41C243.996 11.9514 243.789 12.1584 243.789 12.5723V33.0605L230.337 12.1584C230.337 11.9514 230.13 11.9514 229.923 11.9514H224.75C224.336 11.9514 224.129 12.1584 224.129 12.5723V45.6846C224.129 46.0985 224.336 46.3054 224.75 46.3054H230.337C230.751 46.3054 230.958 46.0985 230.958 45.6846V25.1963L244.41 46.0985C244.41 46.3054 244.617 46.3054 244.824 46.3054H249.998C250.412 46.3054 250.619 46.0985 250.619 45.6846V12.5723Z" fill="#23AF91"/>
<path d="M213.574 12.5723C213.574 12.1584 213.367 11.9514 212.954 11.9514H207.366C206.952 11.9514 206.745 12.1584 206.745 12.5723V45.6846C206.745 46.0985 206.952 46.3054 207.366 46.3054H212.954C213.367 46.3054 213.574 46.0985 213.574 45.6846V12.5723Z" fill="#23AF91"/>
<path d="M147.557 29.1285C147.557 27.4729 147.557 26.0242 147.557 24.9895C147.557 24.1617 147.764 23.1269 147.764 22.2991C148.178 19.4018 150.454 17.5392 153.351 17.5392C155.214 17.5392 156.87 18.1601 158.111 19.8157C158.525 20.6435 158.939 21.4713 159.146 22.2991C159.146 22.2991 159.146 22.506 159.353 22.506H165.769C165.769 22.506 165.975 22.506 165.975 22.2991C165.355 18.367 163.078 14.6419 159.353 12.7793C157.49 11.9515 155.421 11.5376 153.351 11.5376C149.626 11.5376 146.522 12.7793 144.039 15.2627C142.59 16.7114 141.555 18.367 141.141 20.4365C140.727 22.2991 140.52 25.1964 140.52 28.9216C140.52 32.6467 140.727 35.544 141.141 37.4066C141.555 39.2691 142.59 41.1317 143.832 42.5804C146.315 45.0638 149.419 46.3055 153.144 46.3055C155.214 46.3055 157.283 45.8916 159.146 45.0638C162.871 43.2012 165.148 39.6831 165.769 35.544C165.769 35.544 165.769 35.3371 165.562 35.3371H159.353C159.353 35.3371 159.146 35.3371 159.146 35.544C158.939 36.3718 158.525 37.1996 158.111 38.0274C157.077 39.6831 155.214 40.3039 153.351 40.3039C150.454 40.3039 148.178 38.6483 147.764 35.544C147.557 34.7162 147.557 33.6814 147.557 32.8536C147.557 32.0258 147.557 30.7841 147.557 29.1285Z" fill="#23AF91"/>
<path d="M78.8487 12.5723C78.8487 12.1584 78.6417 11.9514 78.2278 11.9514H72.6401C72.2262 11.9514 72.0193 12.1584 72.0193 12.5723V45.6846C72.0193 46.0985 72.2262 46.3054 72.6401 46.3054H78.2278C78.6417 46.3054 78.8487 46.0985 78.8487 45.6846V35.9578L83.1947 30.5771L92.3006 46.0985C92.3006 46.3054 92.5075 46.3054 92.7145 46.3054H99.3369C99.5439 46.3054 99.7508 46.0985 99.5439 45.8915L87.5407 25.6102L98.5091 12.5723C98.7161 12.3653 98.7161 11.9514 98.3022 11.9514H91.0589C91.0589 11.9514 90.8519 11.9514 90.8519 12.1584L78.8487 26.645V12.5723Z" fill="#23AF91"/>
<path d="M119.204 40.5108C116.1 40.5108 113.203 37.6134 113.203 34.3022V12.5723C113.203 12.1584 112.996 11.9514 112.582 11.9514H106.994C106.58 11.9514 106.373 12.1584 106.373 12.5723V34.3022C106.373 41.9594 111.961 46.7193 118.997 46.7193C126.034 46.7193 131.622 41.9594 131.622 34.3022V12.5723C131.622 12.1584 131.415 11.9514 131.001 11.9514H125.413C124.999 11.9514 124.792 12.1584 124.792 12.5723V34.3022C124.999 37.6134 122.309 40.5108 119.204 40.5108Z" fill="#23AF91"/>
<path d="M16.7631 29.1285L33.9401 46.3055L44.7016 35.544C46.5642 33.8884 49.6685 33.8884 51.531 35.7509C53.3936 37.6135 53.3936 40.5108 51.738 42.5803L37.2513 56.6531C35.3888 58.5156 32.2845 58.5156 30.4219 56.6531L9.72674 35.9579V48.168C9.72674 50.8584 7.45027 53.1349 4.75989 53.1349C2.06952 53.1349 0 50.8584 0 48.168V9.88195C0 7.19158 2.27647 4.9151 4.96685 4.9151C7.65722 4.9151 9.93369 7.19158 9.93369 9.88195V22.0921L30.6289 1.39693C32.4914 -0.465642 35.5957 -0.465642 37.4583 1.39693L51.738 15.6766C53.3936 17.5392 53.3936 20.6434 51.531 22.506C49.6685 24.3686 46.7711 24.3686 44.7016 22.713L33.9401 11.9515L16.7631 29.1285ZM33.9401 24.1616C31.8706 24.1616 30.215 25.4033 29.3872 27.2659C28.5594 29.1285 28.9733 31.198 30.4219 32.6467C31.8706 34.0953 33.9401 34.5092 35.8027 33.6814C37.6652 32.8536 38.907 31.198 38.907 29.1285C38.907 27.8868 38.493 26.6451 37.4583 25.6103C36.4235 24.7825 35.1818 24.1616 33.9401 24.1616Z" fill="#23AF91"/>
</svg>
