<svg width="181" height="54" viewBox="0 0 181 54" fill="none" xmlns="http://www.w3.org/2000/svg">
<path d="M52.7946 0H1.20536C0.891964 0 0.578571 0.120536 0.361607 0.361607C0.120536 0.578571 0 0.891964 0 1.20536V52.7946C0 53.108 0.120536 53.4214 0.361607 53.6384C0.578571 53.8554 0.891964 54 1.20536 54H52.7946C53.108 54 53.4214 53.8795 53.6384 53.6384C53.8554 53.4214 54 53.108 54 52.7946V1.20536C54 0.891964 53.8795 0.578571 53.6384 0.361607C53.4214 0.120536 53.108 0 52.7946 0ZM35.992 34.8107C35.992 35.1241 35.8714 35.4375 35.6304 35.6545C35.4134 35.8714 35.1 36.0161 34.7866 36.0161H19.1893C18.8759 36.0161 18.5625 35.8955 18.3455 35.6545C18.1286 35.4375 17.9839 35.1241 17.9839 34.8107V19.1893C17.9839 18.8759 18.1045 18.5625 18.3455 18.3455C18.5625 18.1286 18.8759 17.9839 19.1893 17.9839H34.7866C35.1 17.9839 35.4134 18.1045 35.6304 18.3455C35.8473 18.5625 35.992 18.8759 35.992 19.1893V34.8107ZM160.819 18.008H145.221C144.571 18.008 144.016 18.5384 144.016 19.2134V34.8107C144.016 35.4616 144.546 36.0161 145.221 36.0161H160.819C161.47 36.0161 162.024 35.4857 162.024 34.8107V19.1893C162.024 18.5384 161.494 18.008 160.819 18.008ZM142.811 0H127.213C126.563 0 126.008 0.530357 126.008 1.20536V16.8027C126.008 17.4536 126.538 18.008 127.213 18.008H142.811C143.486 18.008 144.016 17.4777 144.016 16.8027V1.20536C144.016 0.530357 143.486 0 142.811 0ZM178.827 0H163.229C162.579 0 162.024 0.530357 162.024 1.20536V16.8027C162.024 17.4536 162.554 18.008 163.229 18.008H178.827C179.478 18.008 180.032 17.4777 180.032 16.8027V1.20536C180.008 0.530357 179.478 0 178.827 0ZM142.811 35.992H127.213C126.563 35.992 126.008 36.5223 126.008 37.1973V52.7946C126.008 53.4455 126.538 54 127.213 54H142.811C143.486 54 144.016 53.4696 144.016 52.7946V37.1973C144.016 36.5464 143.486 35.992 142.811 35.992ZM178.827 35.992H163.229C162.579 35.992 162.024 36.5223 162.024 37.1973V52.7946C162.024 53.4455 162.554 54 163.229 54H178.827C179.478 54 180.032 53.4696 180.032 52.7946V37.1973C180.008 36.5464 179.478 35.992 178.827 35.992ZM115.787 0H100.189C99.5384 0 98.9839 0.530357 98.9839 1.20536V16.8027C98.9839 17.4536 99.5143 18.008 100.189 18.008H115.787C116.438 18.008 116.992 17.4777 116.992 16.8027V1.20536C116.992 0.530357 116.462 0 115.787 0ZM115.787 35.992H100.189C99.5384 35.992 98.9839 36.5223 98.9839 37.1973V52.7946C98.9839 53.4455 99.5143 54 100.189 54H115.787C116.438 54 116.992 53.4696 116.992 52.7946V37.1973C116.992 36.5464 116.462 35.992 115.787 35.992ZM99.008 19.1893C99.008 18.8759 98.8875 18.5625 98.6464 18.3455C98.4295 18.1286 98.1161 17.9839 97.8027 17.9839H81V1.20536C81 0.891964 80.8795 0.578571 80.6384 0.361607C80.4214 0.120536 80.108 0 79.7946 0H64.1973C63.8839 0 63.5705 0.120536 63.3536 0.361607C63.1366 0.578571 62.992 0.891964 62.992 1.20536V52.7705C62.992 53.0839 63.1125 53.3973 63.3536 53.6143C63.5705 53.8312 63.8839 53.9759 64.1973 53.9759H79.7946C80.108 53.9759 80.4214 53.8554 80.6384 53.6143C80.8554 53.3973 81 53.0839 81 52.7705V35.992H97.8027C98.1161 35.992 98.4295 35.8714 98.6464 35.6304C98.8634 35.4134 99.008 35.1 99.008 34.7866V19.1893Z" fill="black"/>
</svg>
